<svg id="Componente_20_1" data-name="Componente 20 – 1" xmlns="http://www.w3.org/2000/svg" width="120.495" height="108.71" viewBox="0 0 120.495 108.71">
  <path id="Caminho_812" data-name="Caminho 812" d="M664.5,69.031a10.613,10.613,0,0,1-3.1,7.118,10.072,10.072,0,0,1,2.007,5.685,12.2,12.2,0,0,1-4.6,9.774,8.519,8.519,0,0,1,1.388,5.252,11.281,11.281,0,0,1-3.462,7.289,9.9,9.9,0,0,1,.679,7.9,11,11,0,0,1-10.624,8c-29.828,0-33.663.037-34.125.045l-.112.007c-9.2,0-13.638-2.387-15.384-3.7H582.2V58.377h17.757c1.4-1.186,4.036-4.767,6.386-7.961,3.424-4.641,7.3-9.893,11.094-13.459,3.708-3.469,5.275-9.363,6.536-14.1,1.052-3.954,1.88-7.08,3.8-8.647a6.212,6.212,0,0,1,6.013-1.022c3.992,1.335,7.312,5.946,8.886,12.348,2.373,9.647-1.7,20.845-5.558,25.225a16.879,16.879,0,0,0-2.82,5.029h18.518A11.7,11.7,0,0,1,664.5,67.479Z" transform="translate(-544.005 -12.831)" fill="#1ac0c1"/>
  <g id="Grupo_771" data-name="Grupo 771" transform="translate(38.195 0)">
    <path id="Caminho_813" data-name="Caminho 813" d="M664.5,67.479a11.7,11.7,0,0,0-11.691-11.691H634.291a16.879,16.879,0,0,1,2.82-5.029c3.857-4.379,7.931-15.578,5.558-25.225-1.574-6.4-4.894-11.012-8.886-12.348a6.212,6.212,0,0,0-6.013,1.022c-1.917,1.567-2.746,4.693-3.8,8.647-1.261,4.738-2.828,10.632-6.536,14.1-3.8,3.566-7.67,8.819-11.094,13.459-2.35,3.193-4.991,6.774-6.386,7.961H582.2V116.4h14.966c1.746,1.313,6.185,3.7,15.384,3.7l.112-.007c.463-.007,4.3-.045,34.125-.045a11,11,0,0,0,10.624-8,9.9,9.9,0,0,0-.679-7.9,11.281,11.281,0,0,0,3.462-7.289,8.519,8.519,0,0,0-1.388-5.252,12.2,12.2,0,0,0,4.6-9.774,10.072,10.072,0,0,0-2.007-5.685,10.613,10.613,0,0,0,3.1-7.118Zm-4.73,1.552a6.046,6.046,0,0,1-3.126,4.827l-4.365,2.074,4.312,2.179a4.616,4.616,0,0,1,2.089,3.932c.075,1.574-.44,4.611-4.663,7.222L651.063,91.1l2.79,2.074a3.807,3.807,0,0,1,1.619,3.424,6.836,6.836,0,0,1-3.38,5.2l-3.223,1.9,3.1,2.1c1.179.8,1.559,2.805.925,4.872a6.294,6.294,0,0,1-6.1,4.656c-29.06,0-33.626.037-34.237.052-9.684,0-12.728-2.9-12.735-2.9l-.612-.8H586.93V63.107h14.392l.545-.306c2-1.134,4.335-4.223,8.281-9.58,3.3-4.476,7.043-9.55,10.527-12.81,4.693-4.4,6.454-11.027,7.864-16.346.627-2.358,1.492-5.6,2.231-6.2a1.461,1.461,0,0,1,1.515-.194c1.94.649,4.484,3.686,5.8,9,2.022,8.244-1.805,17.883-4.514,20.965-2.9,3.3-4.32,8.05-4.79,9.945l-.739,2.932h24.77a6.975,6.975,0,0,1,6.961,6.968Z" transform="translate(-582.2 -12.831)" fill="#1ac0c1"/>
  </g>
  <g id="Grupo_772" data-name="Grupo 772" transform="translate(38.195 0)" opacity="0.5">
    <path id="Caminho_814" data-name="Caminho 814" d="M664.5,67.479a11.7,11.7,0,0,0-11.691-11.691H634.291a16.879,16.879,0,0,1,2.82-5.029c3.857-4.379,7.931-15.578,5.558-25.225-1.574-6.4-4.894-11.012-8.886-12.348a6.212,6.212,0,0,0-6.013,1.022c-1.917,1.567-2.746,4.693-3.8,8.647-1.261,4.738-2.828,10.632-6.536,14.1-3.8,3.566-7.67,8.819-11.094,13.459-2.35,3.193-4.991,6.774-6.386,7.961H582.2V116.4h14.966c1.746,1.313,6.185,3.7,15.384,3.7l.112-.007c.463-.007,4.3-.045,34.125-.045a11,11,0,0,0,10.624-8,9.9,9.9,0,0,0-.679-7.9,11.281,11.281,0,0,0,3.462-7.289,8.519,8.519,0,0,0-1.388-5.252,12.2,12.2,0,0,0,4.6-9.774,10.072,10.072,0,0,0-2.007-5.685,10.613,10.613,0,0,0,3.1-7.118Zm-4.73,1.552a6.046,6.046,0,0,1-3.126,4.827l-4.365,2.074,4.312,2.179a4.616,4.616,0,0,1,2.089,3.932c.075,1.574-.44,4.611-4.663,7.222L651.063,91.1l2.79,2.074a3.807,3.807,0,0,1,1.619,3.424,6.836,6.836,0,0,1-3.38,5.2l-3.223,1.9,3.1,2.1c1.179.8,1.559,2.805.925,4.872a6.294,6.294,0,0,1-6.1,4.656c-29.06,0-33.626.037-34.237.052-9.684,0-12.728-2.9-12.735-2.9l-.612-.8H586.93V63.107h14.392l.545-.306c2-1.134,4.335-4.223,8.281-9.58,3.3-4.476,7.043-9.55,10.527-12.81,4.693-4.4,6.454-11.027,7.864-16.346.627-2.358,1.492-5.6,2.231-6.2a1.461,1.461,0,0,1,1.515-.194c1.94.649,4.484,3.686,5.8,9,2.022,8.244-1.805,17.883-4.514,20.965-2.9,3.3-4.32,8.05-4.79,9.945l-.739,2.932h24.77a6.975,6.975,0,0,1,6.961,6.968Z" transform="translate(-582.2 -12.831)" fill="#1c1c1b"/>
  </g>
  <g id="Grupo_773" data-name="Grupo 773" transform="translate(0.004 40.697)">
    <path id="Caminho_815" data-name="Caminho 815" d="M563.2,72.691v57.4a5.308,5.308,0,0,1-5.312,5.3H536.315a5.3,5.3,0,0,1-5.3-5.3v-57.4a5.308,5.308,0,0,1,5.3-5.312h21.577A5.314,5.314,0,0,1,563.2,72.691Z" transform="translate(-531.01 -67.379)" fill="#1ac0c1"/>
  </g>
  <g id="Grupo_774" data-name="Grupo 774" transform="translate(0 74.78)" opacity="0.4" style="mix-blend-mode: multiply;isolation: isolate">
    <path id="Caminho_816" data-name="Caminho 816" d="M531.005,113.062v28.622a5.309,5.309,0,0,0,5.309,5.309h21.579a5.309,5.309,0,0,0,5.309-5.309V113.062Z" transform="translate(-531.005 -113.062)" fill="#0091e4"/>
  </g>
  <g id="Grupo_775" data-name="Grupo 775" transform="translate(0.004 40.697)" opacity="0.5" style="mix-blend-mode: normal;isolation: isolate">
    <path id="Caminho_817" data-name="Caminho 817" d="M557.891,67.379H536.315a5.308,5.308,0,0,0-5.3,5.312v57.4a5.3,5.3,0,0,0,5.3,5.3h21.577a5.308,5.308,0,0,0,5.312-5.3v-57.4A5.314,5.314,0,0,0,557.891,67.379Zm2.947,62.708a2.947,2.947,0,0,1-2.947,2.94H536.315a2.947,2.947,0,0,1-2.947-2.94v-57.4a2.948,2.948,0,0,1,2.947-2.947h21.577a2.948,2.948,0,0,1,2.947,2.947Z" transform="translate(-531.01 -67.379)" fill="#1c1c1b"/>
  </g>
</svg>
