<svg id="Componente_21_1" data-name="Componente 21 – 1" xmlns="http://www.w3.org/2000/svg" width="105.197" height="118.466" viewBox="0 0 105.197 118.466">
  <g id="Grupo_474" data-name="Grupo 474" transform="translate(3154.157 -2957.15)">
    <path id="Caminho_155" data-name="Caminho 155" d="M-3085.713,3019.568s.066.084.168.227c.439.614,1.548,2.307.975,3.012-.707.869-11.068.573-11.9.089s-2.257-3.383-1.338-4.346,3.985-.927,7.053.306,3.986-.48,3.986-.48A12.277,12.277,0,0,1-3085.713,3019.568Z" fill="#0ebfc1"/>
    <path id="Caminho_156" data-name="Caminho 156" d="M-3093.083,3031.8s.05.095.126.253c.325.681,1.124,2.54.438,3.135-.847.734-11-1.353-11.733-1.974s-1.635-3.723-.564-4.512,4.086-.223,6.894,1.524,4.008.218,4.008.218A12.357,12.357,0,0,1-3093.083,3031.8Z" fill="#0ebfc1"/>
    <g id="Grupo_473" data-name="Grupo 473">
      <g id="Grupo_458" data-name="Grupo 458">
        <g id="Grupo_457" data-name="Grupo 457">
          <g id="Grupo_456" data-name="Grupo 456">
            <g id="Grupo_453" data-name="Grupo 453">
              <g id="Grupo_452" data-name="Grupo 452">
                <path id="Caminho_157" data-name="Caminho 157" d="M-3074.374,3014.858l5.581-7.561a5.3,5.3,0,0,0-.165-6.667c-1.946-2.272-4.748-1.918-7.02.029l-6.665,5.71A36.857,36.857,0,0,1-3074.374,3014.858Z" fill="#43cdcf"/>
              </g>
            </g>
            <g id="Grupo_454" data-name="Grupo 454">
              <path id="Caminho_158" data-name="Caminho 158" d="M-3076.984,3018.378l5.544-7.478a5.422,5.422,0,0,0-.238-6.75,5.416,5.416,0,0,0-7.637-.589l-6.665,5.71A42.941,42.941,0,0,1-3076.984,3018.378Z" fill="#199e97"/>
            </g>
            <g id="Grupo_455" data-name="Grupo 455">
              <path id="Caminho_159" data-name="Caminho 159" d="M-3109.942,3045.246c4.238,4.238,5.571,9.882,3.28,13.146l33.1-44.645a5.42,5.42,0,0,0-.238-6.75,5.417,5.417,0,0,0-7.637-.589l-41.092,35.208C-3119.21,3039.826-3113.946,3041.241-3109.942,3045.246Z" fill="#26c5c7"/>
              <path id="Caminho_160" data-name="Caminho 160" d="M-3109.942,3045.246c-4-4.005-9.268-5.42-12.59-3.63a5.523,5.523,0,0,0-1.283.951,5.311,5.311,0,0,0-.522.613,5.958,5.958,0,0,0-.945,2.012l-.009-.008-2.772,7.853-4.767,13.5,13.182-3.454,8.865-2.323a6.687,6.687,0,0,0,1.68-.44l.054-.014-.007-.007a5.551,5.551,0,0,0,1.793-1.184,5.337,5.337,0,0,0,.441-.512c.055-.07.109-.142.16-.215C-3104.371,3055.128-3105.7,3049.484-3109.942,3045.246Z" fill="#43cdcf"/>
              <path id="Caminho_161" data-name="Caminho 161" d="M-3123.2,3057.585c-1.684-1.684-3.9-2.28-5.295-1.527a2.338,2.338,0,0,0-.54.4,2.35,2.35,0,0,0-.219.258,2.506,2.506,0,0,0-.4.846l0,0-1.166,3.3-2.005,5.679,5.544-1.452,3.728-.978a2.771,2.771,0,0,0,.707-.185l.023-.006,0,0a2.327,2.327,0,0,0,.754-.5,2.207,2.207,0,0,0,.185-.216c.023-.029.046-.059.068-.09C-3120.861,3061.741-3121.421,3059.367-3123.2,3057.585Z" fill="#199e97"/>
            </g>
          </g>
          <path id="Caminho_162" data-name="Caminho 162" d="M-3069.185,3000.39l-.989,1.34c-.048.071-.093.143-.144.212l-5.544,7.478-.007-.009-29.671,40.023c-.051.073-.1.145-.16.216a5.459,5.459,0,0,1-.441.512,5.549,5.549,0,0,1-1.793,1.183l.007.007-.054.014a6.652,6.652,0,0,1-1.68.44l-8.865,2.323-3.2.84a2.858,2.858,0,0,1-.706.185l-7.025,1.841-3.37,9.546,9.273-2.43a2.776,2.776,0,0,0,.706-.185l3.2-.839,8.865-2.323a6.687,6.687,0,0,0,1.68-.44l.054-.014-.007-.007a5.551,5.551,0,0,0,1.793-1.184,5.337,5.337,0,0,0,.441-.512c.055-.07.109-.142.16-.215l29.671-40.023.007.009,5.544-7.478c.051-.069.1-.141.144-.212l2.5-3.391a5.3,5.3,0,0,0-.165-6.667C-3069.032,3000.544-3069.109,3000.469-3069.185,3000.39Z" fill="#0ebfc1" opacity="0.28" style="mix-blend-mode: multiply;isolation: isolate"/>
        </g>
        <path id="Caminho_163" data-name="Caminho 163" d="M-3065.1,2997.391l9.19-11.1a.345.345,0,0,1,.483-.046h0a.345.345,0,0,1,.045.484l-9.189,11.1a.345.345,0,0,1-.484.045h0A.345.345,0,0,1-3065.1,2997.391Z" fill="#43cdcf"/>
        <path id="Caminho_164" data-name="Caminho 164" d="M-3083.622,3033.731l-5.384,6.506a.2.2,0,0,1-.283.027h0a.2.2,0,0,1-.027-.283l5.385-6.506a.2.2,0,0,1,.283-.027h0A.2.2,0,0,1-3083.622,3033.731Z" fill="#0ebfc1"/>
        <path id="Caminho_165" data-name="Caminho 165" d="M-3066.232,2995.418l4.394-5.308a.163.163,0,0,1,.23-.022h0a.164.164,0,0,1,.022.231l-4.393,5.308a.163.163,0,0,1-.231.022h0A.165.165,0,0,1-3066.232,2995.418Z" fill="#43cdcf"/>
      </g>
      <g id="Grupo_460" data-name="Grupo 460">
        <g id="Grupo_459" data-name="Grupo 459">
          <path id="Caminho_166" data-name="Caminho 166" d="M-3059.938,2977.794h-1.2a10.38,10.38,0,0,0-1.812-4.371l.849-.849a.863.863,0,0,0,0-1.218l-1.189-1.189a.865.865,0,0,0-1.219,0l-.849.849a10.355,10.355,0,0,0-4.37-1.812V2968a.865.865,0,0,0-.862-.862h-1.681a.865.865,0,0,0-.862.862v1.2a10.354,10.354,0,0,0-4.371,1.812l-.848-.849a.865.865,0,0,0-1.219,0l-1.189,1.189a.864.864,0,0,0,0,1.218l.849.849a10.352,10.352,0,0,0-1.812,4.371h-1.2a.865.865,0,0,0-.862.862v1.681a.865.865,0,0,0,.862.862h1.2a10.356,10.356,0,0,0,1.812,4.37l-.849.849a.865.865,0,0,0,0,1.219l1.189,1.189a.865.865,0,0,0,1.219,0l.848-.849a10.385,10.385,0,0,0,4.371,1.812v1.2a.864.864,0,0,0,.862.861h1.681a.864.864,0,0,0,.862-.861v-1.2a10.386,10.386,0,0,0,4.37-1.812l.849.849a.865.865,0,0,0,1.219,0l1.189-1.189a.865.865,0,0,0,0-1.219l-.849-.849a10.384,10.384,0,0,0,1.812-4.37h1.2a.864.864,0,0,0,.861-.862v-1.681A.864.864,0,0,0-3059.938,2977.794Zm-11.492,7.6a5.9,5.9,0,0,1-5.9-5.9,5.9,5.9,0,0,1,5.9-5.9,5.9,5.9,0,0,1,5.9,5.9A5.9,5.9,0,0,1-3071.43,2985.392Z" fill="#43cdcf"/>
          <path id="Caminho_167" data-name="Caminho 167" d="M-3055.964,2962.587l-.221-.884a.469.469,0,0,0-.567-.34l-.636.16a5.608,5.608,0,0,0-1.525-2.059l.337-.561a.469.469,0,0,0-.161-.641l-.781-.469a.468.468,0,0,0-.641.161l-.337.561a5.619,5.619,0,0,0-2.534-.375l-.159-.636a.468.468,0,0,0-.567-.34l-.884.221a.468.468,0,0,0-.34.567l.159.636a5.618,5.618,0,0,0-2.058,1.525l-.562-.337a.469.469,0,0,0-.641.161l-.469.782a.468.468,0,0,0,.161.641l.561.336a5.62,5.62,0,0,0-.375,2.534l-.636.16a.469.469,0,0,0-.34.566l.222.885a.467.467,0,0,0,.566.339l.636-.159a5.632,5.632,0,0,0,1.525,2.058l-.336.562a.469.469,0,0,0,.16.641l.782.469a.469.469,0,0,0,.641-.161l.337-.561a5.618,5.618,0,0,0,2.534.375l.159.636a.469.469,0,0,0,.567.34l.884-.221a.47.47,0,0,0,.34-.567l-.16-.636a5.635,5.635,0,0,0,2.059-1.525l.561.336a.468.468,0,0,0,.641-.16l.469-.782a.469.469,0,0,0-.16-.641l-.562-.336a5.624,5.624,0,0,0,.375-2.535l.637-.159A.468.468,0,0,0-3055.964,2962.587Zm-5.831,4.286a3.2,3.2,0,0,1-3.878-2.325,3.2,3.2,0,0,1,2.325-3.877,3.2,3.2,0,0,1,3.877,2.325A3.2,3.2,0,0,1-3061.795,2966.873Z" fill="#26c5c7"/>
          <path id="Caminho_168" data-name="Caminho 168" d="M-3054.213,2971.771l-.17-.465a.253.253,0,0,0-.325-.151l-.333.122a3.033,3.033,0,0,0-.94-1.024l.15-.322a.254.254,0,0,0-.122-.337l-.448-.209a.255.255,0,0,0-.337.123l-.15.322a3.053,3.053,0,0,0-1.388-.06l-.122-.334a.255.255,0,0,0-.325-.151l-.464.17a.254.254,0,0,0-.152.324l.122.334a3.041,3.041,0,0,0-1.023.94l-.323-.151a.254.254,0,0,0-.336.123l-.209.448a.254.254,0,0,0,.123.337l.322.15a3.04,3.04,0,0,0-.06,1.388l-.334.122a.254.254,0,0,0-.151.325l.169.464a.254.254,0,0,0,.325.151l.334-.121a3.035,3.035,0,0,0,.939,1.023l-.15.323a.253.253,0,0,0,.123.336l.448.209a.254.254,0,0,0,.337-.123l.15-.322a3.039,3.039,0,0,0,1.388.06l.121.334a.254.254,0,0,0,.325.151l.465-.169a.254.254,0,0,0,.151-.325l-.122-.334a3.056,3.056,0,0,0,1.024-.939l.322.15a.255.255,0,0,0,.337-.123l.209-.448a.256.256,0,0,0-.123-.337l-.323-.15a3.04,3.04,0,0,0,.061-1.388l.333-.121A.255.255,0,0,0-3054.213,2971.771Zm-1.926,1.744a1.733,1.733,0,0,1-2.3.839,1.732,1.732,0,0,1-.839-2.3,1.733,1.733,0,0,1,2.3-.84A1.734,1.734,0,0,1-3056.139,2973.515Z" fill="#0ebfc1"/>
        </g>
      </g>
      <path id="Caminho_169" data-name="Caminho 169" d="M-3115.3,3002.358s-.845-4.222,0-6.565,3.672-8.638,4.846-9.566,3.708-4.293,4.148-4.648.5,1.353-.33,2.619-1.927,1.762-1.6,2.588,1.622.11,2.243.275.833.459.383.93-.643.282-1.635.832a5.856,5.856,0,0,1-2.257.606,36.645,36.645,0,0,0-1.543,7.985C-3111.1,3000.607-3115.3,3002.358-3115.3,3002.358Z" fill="#26c5c7"/>
      <g id="Grupo_461" data-name="Grupo 461">
        <path id="Caminho_170" data-name="Caminho 170" d="M-3086.142,2971.177a.7.7,0,0,0-.539-1.029,13.553,13.553,0,0,0-5.6.332c-2.316.918-8.519,3.94-9.41,5.143s-4.175,3.84-4.516,4.291,1.368.453,2.608-.412,1.7-1.981,2.537-1.677.16,1.618.345,2.233.484.819.941.354.261-.652.781-1.66a5.451,5.451,0,0,0,.505-1.841.687.687,0,0,1,.476-.582,34.316,34.316,0,0,1,7.486-1.643C-3088.281,2974.577-3086.814,2972.435-3086.142,2971.177Z" fill="#26c5c7"/>
        <path id="Caminho_171" data-name="Caminho 171" d="M-3092.46,2973.117s4.17-2.973,5.917-2.867.184,7.753-2.236,9.069S-3095.033,2977.783-3092.46,2973.117Z" fill="#43cdcf"/>
        <path id="Caminho_172" data-name="Caminho 172" d="M-3094.468,2988.478l6.287-9.147s-1.506-5.868-4.919-6.379c0,0-5.629,5.58-5.573,8.081S-3097.623,2990.04-3094.468,2988.478Z" fill="#199e97"/>
      </g>
      <g id="Grupo_462" data-name="Grupo 462">
        <path id="Caminho_173" data-name="Caminho 173" d="M-3104.185,2981.21s.813.625.7,1.155.3.815,1.034.977,2.548,2.393,3.24,1.873,6.2-4.109,3.949-6.532-6.064-6.058-6.064-6.058S-3106.689,2977.366-3104.185,2981.21Z" fill="#26c5c7"/>
        <path id="Caminho_174" data-name="Caminho 174" d="M-3110.991,2969.949a21.014,21.014,0,0,1,1.236,4.251c0,1.082,1.223,7.652,2.622,8.657s3.639.309,4.258,0a15.4,15.4,0,0,0,3.942-3.71c.85-1.391,0-4.483,0-4.483a2.01,2.01,0,0,0,1.932-2.242c-.231-2.087-1.777-3.4-2.782-2.009,0,0,0-2.783-1.7-3.247S-3111.82,2967.57-3110.991,2969.949Z" fill="#43cdcf"/>
        <path id="Caminho_175" data-name="Caminho 175" d="M-3100.639,2966.3s-.385-1.982-1.266-1.982-.386.991-.386.991-4.857-1.542-6.228-.991-.325.931-.325.931-5.176,1.491-5.451,3.694,1.872,1.377,1.872,1.377-.055,2.242,1.157,2.3,4.405-2.524,4.405-2.524,0,1.212,1.762.716a6.49,6.49,0,0,0,1.982-.716,20.474,20.474,0,0,0,1.6,1.644c.5.394.753,2.923,1.258,2.7s.59-.99.59-.99l-.111-3.047s.556-.715,1.02-.572c0,0-.288-2.107-1.027-2.493,0,0,1.031.441,1.027.055a.949.949,0,0,0-.909-.826s.857-1.321,0-1.431S-3100.639,2966.3-3100.639,2966.3Z" fill="#199e97"/>
        <path id="Caminho_176" data-name="Caminho 176" d="M-3107.522,2974.782s-.248,4.488,0,4.515a1.99,1.99,0,0,0,1.762-.338" fill="#199e97"/>
        <path id="Caminho_177" data-name="Caminho 177" d="M-3106.7,2980.343a3.642,3.642,0,0,0,2.681-1.624" fill="#199e97"/>
        <path id="Caminho_178" data-name="Caminho 178" d="M-3105.356,2981s1.158-.275,1.341-.661" fill="#199e97"/>
        <path id="Caminho_179" data-name="Caminho 179" d="M-3106.662,2973.761a19.994,19.994,0,0,1,2.526-.633,4.994,4.994,0,0,1,1.284.317s-1.6.289-1.766.316-1.813.689-1.813.689S-3106.81,2974.037-3106.662,2973.761Z" fill="#199e97"/>
        <path id="Caminho_180" data-name="Caminho 180" d="M-3108.426,2974.284s-.649.3-1.267.606c.024.179.053.381.089.6.531-.206,1.462-.54,1.462-.54S-3108.133,2974.391-3108.426,2974.284Z" fill="#199e97"/>
        <path id="Caminho_181" data-name="Caminho 181" d="M-3104.507,2975.336c.095.438-.018.835-.254.886s-.505-.262-.6-.7.018-.835.254-.887S-3104.6,2974.9-3104.507,2975.336Z" fill="#199e97"/>
        <path id="Caminho_182" data-name="Caminho 182" d="M-3107.8,2976.189c.058.445-.088.831-.327.863s-.482-.3-.54-.748.087-.831.327-.863S-3107.863,2975.745-3107.8,2976.189Z" fill="#199e97"/>
      </g>
      <path id="Caminho_183" data-name="Caminho 183" d="M-3085.616,3020.188s.068.093.173.249c.455.675,1.605,2.534,1.031,3.295-.706.937-11.245.479-12.1-.06s-2.338-3.715-1.417-4.753,4.04-.958,7.176.427,4.046-.471,4.046-.471A13.718,13.718,0,0,1-3085.616,3020.188Z" fill="#43cdcf"/>
      <path id="Caminho_184" data-name="Caminho 184" d="M-3093.26,3018.226a3.266,3.266,0,0,0-.8,2.933" fill="none" stroke="#43cdcf" stroke-linecap="round" stroke-linejoin="round" stroke-width="0.696"/>
      <path id="Caminho_185" data-name="Caminho 185" d="M-3091.927,3018.217a3.267,3.267,0,0,0-.8,2.934" fill="none" stroke="#43cdcf" stroke-linecap="round" stroke-linejoin="round" stroke-width="0.696"/>
      <path id="Caminho_186" data-name="Caminho 186" d="M-3090.739,3018.463a2.943,2.943,0,0,0-.822,2.7" fill="none" stroke="#43cdcf" stroke-linecap="round" stroke-linejoin="round" stroke-width="0.66"/>
      <path id="Caminho_187" data-name="Caminho 187" d="M-3089.576,3018.57a2.541,2.541,0,0,0-.9,2.4" fill="none" stroke="#43cdcf" stroke-linecap="round" stroke-linejoin="round" stroke-width="0.624"/>
      <path id="Caminho_188" data-name="Caminho 188" d="M-3095.086,3023.146s1.1-1.107,1.621-1.2,4.955.387,5.862.113l-.619,1.277" fill="none" stroke="#43cdcf" stroke-linecap="round" stroke-linejoin="round" stroke-width="0.749"/>
      <path id="Caminho_189" data-name="Caminho 189" d="M-3094.527,3022.63a3.55,3.55,0,0,1,1.569.021,35.18,35.18,0,0,0,5.208-.286l-.338.7a14.427,14.427,0,0,1-4.67-.081c-1.587-.5-2.145-.011-2.145-.011Z" fill="#26c5c7"/>
      <path id="Caminho_190" data-name="Caminho 190" d="M-3087.291,3016.634a21.8,21.8,0,0,1,1.487,3.194c-.055.33-.716,1.211-2.478.661s-3.634-4.626-3.634-4.626S-3088.833,3014.432-3087.291,3016.634Z" fill="#26c5c7"/>
      <path id="Caminho_191" data-name="Caminho 191" d="M-3090.892,2999.065s-9.386.325-9.527,2.081,1.049,10.027,3.867,10.019,8.452-6.766,7.607-8.529S-3090.892,2999.065-3090.892,2999.065Z" fill="#0ebfc1"/>
      <path id="Caminho_192" data-name="Caminho 192" d="M-3102.588,3003.142s10.268,14.249,11.571,14.71,4.04.8,4.323-1.184-6.926-16.615-7.947-16.9S-3102.111,3000.108-3102.588,3003.142Z" fill="#0ebfc1"/>
      <path id="Caminho_193" data-name="Caminho 193" d="M-3093.1,3032.428s.051.1.128.276c.331.743,1.141,2.773.445,3.423-.859.8-11.159-1.478-11.9-2.156s-1.659-4.064-.572-4.927,4.145-.242,6.994,1.665,4.066.238,4.066.238A13.609,13.609,0,0,1-3093.1,3032.428Z" fill="#43cdcf"/>
      <path id="Caminho_194" data-name="Caminho 194" d="M-3100.283,3029.17a3.269,3.269,0,0,0-1.3,2.75" fill="none" stroke="#43cdcf" stroke-linecap="round" stroke-linejoin="round" stroke-width="0.624"/>
      <path id="Caminho_195" data-name="Caminho 195" d="M-3098.969,3029.393a3.267,3.267,0,0,0-1.3,2.75" fill="none" stroke="#43cdcf" stroke-linecap="round" stroke-linejoin="round" stroke-width="0.624"/>
      <path id="Caminho_196" data-name="Caminho 196" d="M-3097.841,3029.841a2.941,2.941,0,0,0-1.278,2.517" fill="none" stroke="#43cdcf" stroke-linecap="round" stroke-linejoin="round" stroke-width="0.624"/>
      <path id="Caminho_197" data-name="Caminho 197" d="M-3096.715,3030.148s-1.472.85-1.3,2.21" fill="none" stroke="#43cdcf" stroke-linecap="round" stroke-linejoin="round" stroke-width="0.624"/>
      <path id="Caminho_198" data-name="Caminho 198" d="M-3102.934,3033.7a5.636,5.636,0,0,1,1.8-.9c.527,0,4.814,1.241,5.754,1.128l-.831,1.151" fill="none" stroke="#43cdcf" stroke-linecap="round" stroke-linejoin="round" stroke-width="0.749"/>
      <path id="Caminho_199" data-name="Caminho 199" d="M-3102.295,3033.289a3.53,3.53,0,0,1,1.542.292,35.212,35.212,0,0,0,5.178.621l-.453.627a14.439,14.439,0,0,1-4.586-.889c-1.475-.77-2.11-.383-2.11-.383Z" fill="#26c5c7"/>
      <path id="Caminho_200" data-name="Caminho 200" d="M-3095.243,3027.769a21.776,21.776,0,0,1,1.487,3.194c-.055.33-.716,1.211-2.478.66s-3.634-4.625-3.634-4.625S-3096.784,3025.566-3095.243,3027.769Z" fill="#26c5c7"/>
      <path id="Caminho_201" data-name="Caminho 201" d="M-3110.539,3015.72s10.268,14.249,11.571,14.711,4.04.8,4.323-1.184-6.926-16.616-7.947-16.9S-3110.062,3012.686-3110.539,3015.72Z" fill="#0ebfc1"/>
      <path id="Caminho_202" data-name="Caminho 202" d="M-3079.5,2999.224s4.217,10.411-3.954,13.85-24.871,4-24.871,4-4.4-.868-2.02-5.365,18.3-8.485,21.115-9.237S-3079.5,2999.224-3079.5,2999.224Z" fill="#26c5c7"/>
      <g id="Grupo_463" data-name="Grupo 463">
        <path id="Caminho_203" data-name="Caminho 203" d="M-3096.619,2977.26s-2.8,6.144-5.991,7.834-2.16,7.52,1.784,9.771,7.7,5.85,9.393,9.247,12.29-.4,11.927-6.912S-3092.011,2973-3096.619,2977.26Z" fill="#26c5c7"/>
        <path id="Caminho_204" data-name="Caminho 204" d="M-3079.869,2995.224c-3.17,2.65-8.043,3.487-9.143,1.276-1.691-3.4-5.448-7-9.392-9.248a7.349,7.349,0,0,1-2.891-3.106,6.68,6.68,0,0,1-1.315.948c-3.193,1.691-2.16,7.52,1.784,9.771s7.7,5.85,9.393,9.247,12.29-.4,11.927-6.912A9.561,9.561,0,0,0-3079.869,2995.224Z" fill="#199e97"/>
      </g>
      <g id="Grupo_464" data-name="Grupo 464">
        <path id="Caminho_205" data-name="Caminho 205" d="M-3111.047,2993.676s-4.1,4.595-4.252,7.47,2.709,1.752,4.252,1.212,4.837-4.772,5.392-6.565S-3110.167,2991.59-3111.047,2993.676Z" fill="#43cdcf"/>
        <path id="Caminho_206" data-name="Caminho 206" d="M-3103.378,2985.654l-7.669,8.022s.547,6.034,3.835,7.085c0,0,6.449-4.608,6.793-7.085S-3100.013,2984.616-3103.378,2985.654Z" fill="#26c5c7"/>
      </g>
      <path id="Caminho_207" data-name="Caminho 207" d="M-3134.452,2995.056a7.192,7.192,0,0,0-9.815,3.478,7.247,7.247,0,0,0,3.171,9.278,7.158,7.158,0,0,0,4.974.673,6.236,6.236,0,0,1,4.211.474h0a3.179,3.179,0,0,0,4.272-1.4l.8-1.573a3.18,3.18,0,0,0-1.4-4.274h0a6.09,6.09,0,0,1-2.847-3.059A7.155,7.155,0,0,0-3134.452,2995.056Z" fill="#43cdcf"/>
      <path id="Caminho_208" data-name="Caminho 208" d="M-3125.51,3003.87l-3.048,6.014a.867.867,0,0,1-1.163.381h0a.868.868,0,0,1-.381-1.163l3.048-6.014a.867.867,0,0,1,1.163-.381h0A.868.868,0,0,1-3125.51,3003.87Z" fill="#0ebfc1"/>
      <path id="Caminho_209" data-name="Caminho 209" d="M-3124.31,3004.478l-3.047,6.015a.869.869,0,0,1-1.163.381h0a.868.868,0,0,1-.381-1.163l3.048-6.015a.869.869,0,0,1,1.163-.381h0A.868.868,0,0,1-3124.31,3004.478Z" fill="#26c5c7"/>
      <path id="Caminho_210" data-name="Caminho 210" d="M-3123.109,3005.087l-3.048,6.014a.868.868,0,0,1-1.163.381h0a.868.868,0,0,1-.38-1.163l3.047-6.015a.868.868,0,0,1,1.163-.38h0A.867.867,0,0,1-3123.109,3005.087Z" fill="#0ebfc1"/>
      <path id="Caminho_211" data-name="Caminho 211" d="M-3122.65,3006.159l-2.37,4.678a.676.676,0,0,1-.905.3h0a.675.675,0,0,1-.3-.9l2.371-4.678a.674.674,0,0,1,.9-.3h0A.675.675,0,0,1-3122.65,3006.159Z" fill="#26c5c7"/>
      <path id="Caminho_212" data-name="Caminho 212" d="M-3128.83,3007.912l-9.877-5s2.3.7,1.983-.745-1.928-.339-.722-.037,2.248-1.269.308-2.314l9.68,4.905" fill="none" stroke="#0ebfc1" stroke-width="0.1"/>
      <rect id="Retângulo_795" data-name="Retângulo 795" width="1.258" height="3.882" rx="0.629" transform="translate(-3152.542 2994.687) rotate(-63.132)" fill="#0ebfc1"/>
      <rect id="Retângulo_796" data-name="Retângulo 796" width="1.258" height="3.882" rx="0.629" transform="translate(-3146.92 2988.044) rotate(-33.112)" fill="#26c5c7"/>
      <rect id="Retângulo_797" data-name="Retângulo 797" width="1.258" height="3.882" rx="0.629" transform="matrix(0.999, -0.053, 0.053, 0.999, -3138.726, 2985.106)" fill="#0ebfc1"/>
      <rect id="Retângulo_798" data-name="Retângulo 798" width="1.258" height="3.882" rx="0.629" transform="matrix(0.891, 0.453, -0.453, 0.891, -3130.164, 2986.664)" fill="#26c5c7"/>
      <rect id="Retângulo_799" data-name="Retângulo 799" width="1.258" height="3.882" rx="0.629" transform="translate(-3123.529 2992.297) rotate(56.998)" fill="#0ebfc1"/>
      <rect id="Retângulo_800" data-name="Retângulo 800" width="1.258" height="3.882" rx="0.629" transform="translate(-3136.021 3018.593) rotate(177.107)" fill="#0ebfc1"/>
      <rect id="Retângulo_801" data-name="Retângulo 801" width="1.258" height="3.882" rx="0.629" transform="matrix(-0.89, -0.456, 0.456, -0.89, -3144.579, 3017.009)" fill="#26c5c7"/>
      <rect id="Retângulo_802" data-name="Retângulo 802" width="1.258" height="3.882" rx="0.629" transform="translate(-3151.196 3011.355) rotate(-122.834)" fill="#0ebfc1"/>
      <rect id="Retângulo_803" data-name="Retângulo 803" width="1.258" height="3.882" rx="0.629" transform="matrix(-0.049, -0.999, 0.999, -0.049, -3154.095, 3003.149)" fill="#26c5c7"/>
      <g id="Grupo_468" data-name="Grupo 468">
        <g id="Grupo_465" data-name="Grupo 465">
          <path id="Caminho_213" data-name="Caminho 213" d="M-3083.583,3049.506l-.707,4.6-11.222,7.1h-.506Z" fill="#199e97"/>
          <path id="Caminho_214" data-name="Caminho 214" d="M-3083.583,3049.506l-3.064-4.478-9.371,16.177Z" fill="#26c5c7"/>
          <path id="Caminho_215" data-name="Caminho 215" d="M-3095.512,3061.2l13.34-9.634,6.585.9Z" fill="#1ac0c1"/>
        </g>
        <g id="Grupo_466" data-name="Grupo 466">
          <path id="Caminho_216" data-name="Caminho 216" d="M-3055.731,3001.144l.264,3.135-6.249,6.438-.332.08Z" fill="#1bafab"/>
          <path id="Caminho_217" data-name="Caminho 217" d="M-3055.731,3001.144l-2.722-2.457-3.6,12.111Z" fill="#26c5c7"/>
          <path id="Caminho_218" data-name="Caminho 218" d="M-3061.717,3010.718l7.239-8.441,4.469-.45Z" fill="#26c5c7"/>
        </g>
        <g id="Grupo_467" data-name="Grupo 467">
          <path id="Caminho_219" data-name="Caminho 219" d="M-3137.287,3032.168l-3.431,1.6-2.987,10.374.115.395Z" fill="#199e97"/>
          <path id="Caminho_220" data-name="Caminho 220" d="M-3137.287,3032.168l4.193,1.373-10.5,10.995Z" fill="#26c5c7"/>
          <path id="Caminho_221" data-name="Caminho 221" d="M-3143.705,3044.141l4.485-12.6-2.2-4.935Z" fill="#26c5c7"/>
        </g>
      </g>
      <g id="Grupo_471" data-name="Grupo 471">
        <g id="Grupo_469" data-name="Grupo 469">
          <circle id="Elipse_28" data-name="Elipse 28" cx="4.462" cy="4.462" r="4.462" transform="translate(-3062.145 3066.061) rotate(-45)" fill="#43cdcf"/>
          <rect id="Retângulo_804" data-name="Retângulo 804" width="9.343" height="9.343" transform="translate(-3067.038 3058.548)" fill="#26c5c7"/>
        </g>
        <g id="Grupo_470" data-name="Grupo 470">
          <path id="Caminho_222" data-name="Caminho 222" d="M-3125.772,2968.083a2.176,2.176,0,0,1,.41-3.05,2.176,2.176,0,0,1,3.05.41,2.177,2.177,0,0,1-.41,3.051A2.176,2.176,0,0,1-3125.772,2968.083Z" fill="#43cdcf"/>
          <rect id="Retângulo_805" data-name="Retângulo 805" width="4.557" height="4.557" transform="translate(-3117.475 2966.362) rotate(142.657)" fill="#26c5c7"/>
        </g>
      </g>
      <circle id="Elipse_29" data-name="Elipse 29" cx="8.136" cy="8.136" r="8.136" transform="matrix(0.232, -0.973, 0.973, 0.232, -3072.289, 3041.011)" fill="#1bafab"/>
      <path id="Caminho_223" data-name="Caminho 223" d="M-3062.489,3026.847a8.136,8.136,0,0,1,8.136,8.135" fill="none" stroke="#43cdcf" stroke-width="1.235"/>
      <path id="Caminho_224" data-name="Caminho 224" d="M-3061.656,3026.847a.832.832,0,0,1-.833.832.832.832,0,0,1-.833-.832.833.833,0,0,1,.833-.833A.833.833,0,0,1-3061.656,3026.847Z" fill="#26c5c7"/>
      <path id="Caminho_225" data-name="Caminho 225" d="M-3053.521,3034.982a.832.832,0,0,1-.832.833.833.833,0,0,1-.833-.833.832.832,0,0,1,.833-.832A.831.831,0,0,1-3053.521,3034.982Z" fill="#26c5c7"/>
      <line id="Linha_29" data-name="Linha 29" x2="14.089" y2="14.089" transform="translate(-3063.479 3022.504)" fill="none" stroke="#0ebfc1" stroke-width="0.926"/>
      <path id="Caminho_226" data-name="Caminho 226" d="M-3063.049,3022.5a.43.43,0,0,1-.43.43.431.431,0,0,1-.43-.43.43.43,0,0,1,.43-.43A.429.429,0,0,1-3063.049,3022.5Z" fill="#26c5c7"/>
      <circle id="Elipse_30" data-name="Elipse 30" cx="0.43" cy="0.43" r="0.43" transform="translate(-3049.82 3036.163)" fill="#26c5c7"/>
      <g id="Grupo_472" data-name="Grupo 472">
        <circle id="Elipse_31" data-name="Elipse 31" cx="5.329" cy="5.329" r="5.329" transform="matrix(0.199, -0.98, 0.98, 0.199, -3144.637, 3073.499)" fill="#1ac0c1"/>
        <path id="Caminho_227" data-name="Caminho 227" d="M-3143.422,3070.989a5.329,5.329,0,0,1,3.411-6.72" fill="none" stroke="#43cdcf" stroke-width="1.235"/>
        <path id="Caminho_228" data-name="Caminho 228" d="M-3143.591,3070.471a.545.545,0,0,1,.688.349.546.546,0,0,1-.349.688.546.546,0,0,1-.688-.349A.545.545,0,0,1-3143.591,3070.471Z" fill="#26c5c7"/>
        <path id="Caminho_229" data-name="Caminho 229" d="M-3140.18,3063.75a.545.545,0,0,1,.687.349.544.544,0,0,1-.349.688.545.545,0,0,1-.688-.349A.546.546,0,0,1-3140.18,3063.75Z" fill="#26c5c7"/>
        <rect id="Retângulo_806" data-name="Retângulo 806" width="1.163" height="1.163" transform="matrix(-0.311, -0.951, 0.951, -0.311, -3143.343, 3067.403)" fill="#43cdcf"/>
        <line id="Linha_30" data-name="Linha 30" y1="11.638" x2="5.906" transform="translate(-3145.924 3060.851)" fill="none" stroke="#0ebfc1" stroke-width="0.926"/>
        <path id="Caminho_230" data-name="Caminho 230" d="M-3146.012,3072.221a.283.283,0,0,1,.356.18.282.282,0,0,1-.181.355.281.281,0,0,1-.355-.18A.282.282,0,0,1-3146.012,3072.221Z" fill="#26c5c7"/>
        <path id="Caminho_231" data-name="Caminho 231" d="M-3140.106,3060.583a.283.283,0,0,1,.356.18.282.282,0,0,1-.181.355.28.28,0,0,1-.355-.18A.282.282,0,0,1-3140.106,3060.583Z" fill="#26c5c7"/>
      </g>
      <rect id="Retângulo_807" data-name="Retângulo 807" width="1.776" height="1.776" transform="translate(-3057.322 3028.66)" fill="#26c5c7"/>
    </g>
  </g>
</svg>
