<svg id="Componente_22_1" data-name="Componente 22 – 1" xmlns="http://www.w3.org/2000/svg" width="125.099" height="117.413" viewBox="0 0 125.099 117.413">
  <path id="Caminho_100" data-name="Caminho 100" d="M-2720.686,2484.866a.19.19,0,0,1-.122-.161c-.018-.246-.031-.5-.04-.743a.183.183,0,0,1,.182-.188c.25,0,.182.245.232.909a.182.182,0,0,1-.173.195A.191.191,0,0,1-2720.686,2484.866Z" transform="translate(2723.823 -2459.892)" fill="#1ac0c1"/>
  <path id="Caminho_101" data-name="Caminho 101" d="M-2720.773,2481.646c.046-.471.111-.946.2-1.411a.183.183,0,0,1,.217-.146c.277.053.1.21-.039,1.6a.182.182,0,0,1-.2.162A.187.187,0,0,1-2720.773,2481.646Zm.747-3.656c.143-.453.307-.909.481-1.339a.188.188,0,0,1,.348.141c-.173.428-.331.868-.471,1.312a.184.184,0,0,1-.234.118A.186.186,0,0,1-2720.026,2477.99Zm1.484-3.421c.232-.411.485-.818.75-1.21a.188.188,0,0,1,.313.207c-.26.384-.507.783-.735,1.186A.188.188,0,0,1-2718.542,2474.569Zm2.19-2.781a.182.182,0,0,1-.02-.26c.314-.354.646-.7.988-1.031.176-.169.44.1.265.265-.336.323-.662.663-.969,1.01A.188.188,0,0,1-2716.352,2471.788Zm2.708-2.533a.182.182,0,0,1,.035-.258c.382-.284.78-.555,1.184-.808a.186.186,0,0,1,.2.311c-.4.248-.785.514-1.16.792A.191.191,0,0,1-2713.644,2469.255Zm3.287-1.838a.19.19,0,0,1-.1-.094.18.18,0,0,1,.086-.245c.434-.2.881-.387,1.329-.553a.191.191,0,0,1,.243.107.181.181,0,0,1-.1.238c-.439.163-.878.345-1.3.542A.192.192,0,0,1-2710.357,2467.417Zm3.537-1.217a.19.19,0,0,1-.117-.129.182.182,0,0,1,.136-.222c.467-.109.945-.2,1.419-.274a.191.191,0,0,1,.217.153.182.182,0,0,1-.153.211c-.466.071-.934.161-1.391.268A.191.191,0,0,1-2706.82,2466.2Zm3.6-.646a.181.181,0,0,1,.179-.189c.481-.013.969-.007,1.451.018a.184.184,0,1,1-.013.368c-.473-.025-.951-.03-1.422-.018A.189.189,0,0,1-2703.216,2465.554Zm12,4c-1.122-.857-1.374-.843-1.22-1.076a.189.189,0,0,1,.259-.051c.405.262.805.544,1.188.837A.184.184,0,1,1-2691.213,2469.555Zm-8.242-3.756a.184.184,0,0,1,.215-.149c.475.085.953.188,1.422.309a.184.184,0,1,1-.09.356c-.459-.118-.928-.22-1.393-.3A.188.188,0,0,1-2699.455,2465.8Zm5.059,1.8c-1.27-.614-1.517-.551-1.415-.811a.19.19,0,0,1,.242-.1c.452.177.9.373,1.335.583a.185.185,0,0,1,.088.247A.186.186,0,0,1-2694.4,2467.6Z" transform="translate(2723.823 -2459.892)" fill="#1ac0c1"/>
  <path id="Caminho_102" data-name="Caminho 102" d="M-2683.932,2485.031a.187.187,0,0,1-.122-.184c.013-.242.021-.487.024-.729a.183.183,0,0,1,.19-.179.19.19,0,0,1,.185.189c0,.247-.011.5-.025.743a.183.183,0,0,1-.2.172A.193.193,0,0,1-2683.932,2485.031Z" transform="translate(2723.823 -2459.892)" fill="#1ac0c1"/>
  <path id="Caminho_103" data-name="Caminho 103" d="M-2709.2,2500.5c-.482-.2-.962-.417-1.425-.653a.184.184,0,0,1-.084-.248c.132-.254.238-.016,1.648.561a.185.185,0,0,1,.1.241A.191.191,0,0,1-2709.2,2500.5Zm2.278.581c.071-.277.235-.066,1.726.2a.189.189,0,0,1,.155.214.185.185,0,0,1-.216.149c-.51-.091-1.025-.2-1.529-.336A.187.187,0,0,1-2706.922,2501.079Zm-5.888-2.537c-.427-.3-.847-.613-1.249-.943a.184.184,0,0,1-.026-.26c.186-.219.236.036,1.487.9a.182.182,0,0,1,.048.256A.187.187,0,0,1-2712.81,2498.542Zm10.02,3.359a.186.186,0,0,1-.123-.179.184.184,0,0,1,.192-.177c.509.021,1.024.02,1.531,0a.189.189,0,0,1,.2.176.183.183,0,0,1-.176.192c-.517.022-1.043.022-1.562,0A.168.168,0,0,1-2702.79,2501.9Zm4.036-.277a.191.191,0,0,1-.119-.139.181.181,0,0,1,.148-.214c.5-.09,1-.2,1.487-.333a.192.192,0,0,1,.232.13.181.181,0,0,1-.128.226c-.5.133-1.01.247-1.519.339A.2.2,0,0,1-2698.754,2501.624Zm3.864-1.143a.185.185,0,0,1-.106-.1.18.18,0,0,1,.1-.241c.465-.195.927-.412,1.374-.645a.191.191,0,0,1,.254.077.181.181,0,0,1-.075.249c-.455.238-.927.459-1.4.658A.19.19,0,0,1-2694.89,2500.481Zm3.506-1.947a.192.192,0,0,1-.085-.065.181.181,0,0,1,.039-.257c.41-.29.811-.6,1.194-.925a.189.189,0,0,1,.264.021.183.183,0,0,1-.017.26c-.391.33-.8.648-1.218.944A.193.193,0,0,1-2691.384,2498.534Zm2.922-2.694c-.22-.19.039-.229.935-1.423a.188.188,0,0,1,.3.221c-.306.408-.634.807-.974,1.188A.189.189,0,0,1-2688.462,2495.84Zm2.336-3.224c-.257-.139-.015-.23.589-1.595a.188.188,0,0,1,.344.151c-.206.466-.435.928-.68,1.373A.186.186,0,0,1-2686.126,2492.616Zm1.534-3.663a.187.187,0,0,1-.115-.224c.138-.482.256-.973.352-1.46a.183.183,0,0,1,.219-.143.188.188,0,0,1,.149.218c-.1.5-.219,1-.359,1.489a.185.185,0,0,1-.231.125Z" transform="translate(2723.823 -2459.892)" fill="#1ac0c1"/>
  <path id="Caminho_104" data-name="Caminho 104" d="M-2715.913,2495.85c-.444-.479-.667-.671-.481-.823s.3.087.756.577a.182.182,0,0,1-.011.26A.189.189,0,0,1-2715.913,2495.85Z" transform="translate(2723.823 -2459.892)" fill="#1ac0c1"/>
  <path id="Caminho_105" data-name="Caminho 105" d="M-2713.865,2491.194l2.663-.33a11.88,11.88,0,0,0,2.888,2.464c.1,2.568-.071,2.755.2,2.847l3.069,1.022a.221.221,0,0,0,.245-.072l1.616-2.087a11.861,11.861,0,0,0,3.783-.241l1.938,1.862a.224.224,0,0,0,.253.041l2.873-1.4a.211.211,0,0,0,.118-.222l-.375-2.622a11.383,11.383,0,0,0,2.463-2.8l2.687-.01a.215.215,0,0,0,.206-.147l.993-3a.217.217,0,0,0-.077-.241l-2.147-1.621a11.371,11.371,0,0,0-.3-3.723c1.783-1.87,2.033-1.872,1.9-2.125-1.488-2.765-1.4-3-1.7-2.965l-2.663.33a11.9,11.9,0,0,0-2.888-2.464c-.1-2.566.071-2.755-.2-2.846-3.067-.964-3.14-1.175-3.314-.95l-1.616,2.086a11.882,11.882,0,0,0-3.783.242c-1.907-1.76-1.932-2.03-2.191-1.9-2.818,1.435-3.032,1.338-2.991,1.621l.376,2.623a11.3,11.3,0,0,0-2.463,2.8c-2.565.062-2.8-.117-2.893.157-.93,2.987-1.149,3.067-.917,3.243l2.147,1.62a11.377,11.377,0,0,0,.3,3.723c-1.776,1.865-2.034,1.871-1.9,2.125C-2714.072,2491-2714.156,2491.23-2713.865,2491.194Z" transform="translate(2723.823 -2459.892)" fill="#1ac0c1"/>
  <path id="Caminho_106" data-name="Caminho 106" d="M-2705.351,2483.257a3.075,3.075,0,0,1,3.345-2.831,3.169,3.169,0,0,1,2.932,3.331,3.076,3.076,0,0,1-3.346,2.832h0A3.169,3.169,0,0,1-2705.351,2483.257Zm2.95,3.057h0Zm.358-5.338a2.523,2.523,0,0,0-2.747,2.326,2.6,2.6,0,0,0,2.407,2.736,2.527,2.527,0,0,0,2.748-2.325A2.6,2.6,0,0,0-2702.043,2480.976Z" transform="translate(2723.823 -2459.892)" fill="#199e97"/>
  <path id="Caminho_107" data-name="Caminho 107" d="M-2704.951,2490.866h0a8.372,8.372,0,0,1-1.256-.6.277.277,0,0,1-.123-.336.253.253,0,0,1,.02-.043.282.282,0,0,1,.384-.095,7.782,7.782,0,0,0,1.46.661h0a7.441,7.441,0,0,0,9.348-4.319c.036-.094.069-.189.1-.285a7.454,7.454,0,0,0-4.826-9.358,7.431,7.431,0,0,0-9.449,4.6,8.368,8.368,0,0,0-.186,4.079.283.283,0,0,1-.537-.042,7.768,7.768,0,0,1,.3-4.521c2.426-6.421,11.562-6.812,14.746-.637a7.778,7.778,0,0,1,.491,6.055c-.034.1-.071.206-.109.308a7.749,7.749,0,0,1-3.9,4.249,8.116,8.116,0,0,1-6.153.391Q-2704.8,2490.924-2704.951,2490.866Z" transform="translate(2723.823 -2459.892)" fill="#199e97"/>
  <path id="Caminho_108" data-name="Caminho 108" d="M-2688.943,2471.607c-.431-.459-.7-.615-.519-.79a.189.189,0,0,1,.265,0c.464.457.7.64.519.8A.214.214,0,0,1-2688.943,2471.607Z" transform="translate(2723.823 -2459.892)" fill="#1ac0c1"/>
  <g id="Grupo_399" data-name="Grupo 399" transform="translate(2723.823 -2459.892)">
    <g id="Grupo_397" data-name="Grupo 397">
      <path id="Caminho_109" data-name="Caminho 109" d="M-2690.616,2471.727a.117.117,0,0,1-.074-.1c-.011-.149-.019-.3-.024-.451a.111.111,0,0,1,.11-.114c.152,0,.111.149.141.552a.11.11,0,0,1-.105.118A.124.124,0,0,1-2690.616,2471.727Z" fill="#1ac0c1"/>
      <path id="Caminho_110" data-name="Caminho 110" d="M-2690.669,2469.773c.028-.285.068-.573.119-.856a.112.112,0,0,1,.131-.089c.169.033.059.128-.023.97a.113.113,0,0,1-.124.1A.115.115,0,0,1-2690.669,2469.773Zm.454-2.218c.086-.274.186-.551.291-.812a.114.114,0,0,1,.212.085c-.106.26-.2.527-.286.8a.112.112,0,0,1-.142.072A.112.112,0,0,1-2690.215,2467.555Zm.9-2.075c.141-.249.294-.5.455-.734a.114.114,0,0,1,.19.125c-.158.233-.308.475-.446.72A.114.114,0,0,1-2689.315,2465.48Zm1.328-1.687a.112.112,0,0,1-.012-.158c.191-.215.392-.425.6-.625.107-.1.267.058.16.161-.2.2-.4.4-.588.612A.114.114,0,0,1-2687.987,2463.793Zm1.644-1.537a.109.109,0,0,1,.02-.156c.232-.172.474-.337.719-.491a.113.113,0,0,1,.124.189c-.24.151-.477.312-.7.481A.116.116,0,0,1-2686.343,2462.256Zm1.994-1.115a.114.114,0,0,1-.063-.057.11.11,0,0,1,.052-.149c.264-.121.535-.234.807-.335a.115.115,0,0,1,.147.065.11.11,0,0,1-.064.144c-.267.1-.532.21-.79.329A.121.121,0,0,1-2684.349,2461.141Zm2.145-.738a.116.116,0,0,1-.071-.079.11.11,0,0,1,.083-.134c.283-.066.573-.122.861-.167a.116.116,0,0,1,.131.094.109.109,0,0,1-.093.127c-.282.043-.566.1-.844.163A.11.11,0,0,1-2682.2,2460.4Zm2.186-.392a.111.111,0,0,1,.109-.115c.292-.008.588,0,.881.011a.112.112,0,1,1-.009.223c-.286-.014-.576-.018-.862-.011A.115.115,0,0,1-2680.018,2460.011Zm7.282,2.427c-.68-.52-.833-.511-.74-.652a.114.114,0,0,1,.157-.032c.246.16.488.331.721.508A.112.112,0,1,1-2672.736,2462.438Zm-5-2.279a.112.112,0,0,1,.131-.09c.288.051.578.114.862.187a.112.112,0,1,1-.054.217c-.279-.072-.563-.134-.845-.184A.114.114,0,0,1-2677.736,2460.159Zm3.07,1.093c-.771-.373-.921-.335-.859-.492a.115.115,0,0,1,.147-.062c.274.107.546.226.809.353a.113.113,0,0,1,.054.15A.113.113,0,0,1-2674.666,2461.252Z" fill="#1ac0c1"/>
      <path id="Caminho_111" data-name="Caminho 111" d="M-2671.359,2463.683c-.261-.279-.423-.373-.314-.479a.115.115,0,0,1,.161,0c.281.278.422.388.314.486A.13.13,0,0,1-2671.359,2463.683Z" fill="#1ac0c1"/>
    </g>
    <g id="Grupo_398" data-name="Grupo 398">
      <path id="Caminho_112" data-name="Caminho 112" d="M-2668.318,2471.827a.115.115,0,0,1-.075-.112c.008-.147.013-.3.015-.442a.11.11,0,0,1,.115-.108.114.114,0,0,1,.112.114c0,.15-.006.3-.015.451a.11.11,0,0,1-.119.1A.108.108,0,0,1-2668.318,2471.827Z" fill="#1ac0c1"/>
      <path id="Caminho_113" data-name="Caminho 113" d="M-2683.648,2481.21c-.292-.12-.583-.253-.864-.4a.113.113,0,0,1-.051-.151c.08-.154.144-.009,1,.341a.113.113,0,0,1,.063.146A.117.117,0,0,1-2683.648,2481.21Zm1.382.352c.043-.167.143-.039,1.047.121a.112.112,0,0,1,.094.129.112.112,0,0,1-.13.091c-.31-.055-.622-.124-.928-.2A.113.113,0,0,1-2682.266,2481.562Zm-3.572-1.539c-.259-.179-.514-.371-.757-.572a.11.11,0,0,1-.016-.157c.112-.133.143.022.9.547a.111.111,0,0,1,.029.156A.114.114,0,0,1-2685.838,2480.023Zm6.079,2.038a.113.113,0,0,1-.075-.108.112.112,0,0,1,.117-.108c.309.013.621.013.929,0a.115.115,0,0,1,.12.106.112.112,0,0,1-.107.117c-.314.013-.633.013-.948,0A.107.107,0,0,1-2679.759,2482.061Zm2.449-.168a.118.118,0,0,1-.073-.084.11.11,0,0,1,.09-.13c.3-.055.606-.122.9-.2a.116.116,0,0,1,.141.079.111.111,0,0,1-.078.137c-.3.081-.613.15-.921.206A.125.125,0,0,1-2677.31,2481.893Zm2.344-.693a.118.118,0,0,1-.065-.061.11.11,0,0,1,.058-.146c.282-.119.563-.25.833-.391a.116.116,0,0,1,.155.046.11.11,0,0,1-.046.151c-.276.144-.562.279-.85.4A.114.114,0,0,1-2674.966,2481.2Zm2.127-1.182a.107.107,0,0,1-.052-.039.11.11,0,0,1,.024-.156c.248-.176.492-.365.724-.561a.115.115,0,0,1,.16.013.109.109,0,0,1-.01.157c-.237.2-.486.393-.739.573A.112.112,0,0,1-2672.839,2480.018Zm1.772-1.634c-.133-.115.024-.138.567-.863a.114.114,0,0,1,.184.134c-.185.247-.384.49-.591.721A.114.114,0,0,1-2671.067,2478.384Zm1.417-1.955c-.155-.085-.009-.14.358-.968a.114.114,0,0,1,.208.092c-.125.282-.263.562-.412.832A.114.114,0,0,1-2669.65,2476.429Zm.931-2.223a.114.114,0,0,1-.07-.136c.084-.292.156-.59.214-.886a.111.111,0,0,1,.133-.086.115.115,0,0,1,.09.132c-.059.3-.133.606-.218.9a.111.111,0,0,1-.14.075Z" fill="#1ac0c1"/>
      <path id="Caminho_114" data-name="Caminho 114" d="M-2687.72,2478.39c-.269-.29-.405-.407-.292-.5s.183.053.459.35a.111.111,0,0,1-.007.158A.114.114,0,0,1-2687.72,2478.39Z" fill="#1ac0c1"/>
    </g>
  </g>
  <path id="Caminho_115" data-name="Caminho 115" d="M-2686.478,2475.566l1.616-.2a7.207,7.207,0,0,0,1.752,1.494c.063,1.558-.043,1.672.123,1.727l1.862.621a.134.134,0,0,0,.148-.044l.981-1.266a7.212,7.212,0,0,0,2.3-.147l1.175,1.13a.136.136,0,0,0,.154.025l1.743-.849a.129.129,0,0,0,.072-.135l-.228-1.591a6.875,6.875,0,0,0,1.494-1.7l1.63-.006a.132.132,0,0,0,.125-.089l.6-1.821a.13.13,0,0,0-.047-.146l-1.3-.983a6.916,6.916,0,0,0-.183-2.259c1.081-1.135,1.233-1.136,1.154-1.289-.9-1.678-.851-1.821-1.028-1.8l-1.616.2a7.24,7.24,0,0,0-1.751-1.495c-.063-1.556.043-1.671-.124-1.726-1.86-.585-1.905-.713-2.01-.577l-.981,1.266a7.211,7.211,0,0,0-2.295.146c-1.157-1.067-1.172-1.231-1.329-1.154-1.71.871-1.839.812-1.814.984l.227,1.591a6.9,6.9,0,0,0-1.494,1.7c-1.556.038-1.7-.071-1.755.1-.564,1.812-.7,1.861-.556,1.967l1.3.983a6.89,6.89,0,0,0,.184,2.259c-1.078,1.131-1.234,1.135-1.155,1.289C-2686.6,2475.445-2686.655,2475.588-2686.478,2475.566Z" transform="translate(2723.823 -2459.892)" fill="#1ac0c1"/>
  <g id="Grupo_401" data-name="Grupo 401" transform="translate(2723.823 -2459.892)">
    <path id="Caminho_116" data-name="Caminho 116" d="M-2681.313,2470.751a1.866,1.866,0,0,1,2.03-1.718,1.923,1.923,0,0,1,1.778,2.021,1.866,1.866,0,0,1-2.029,1.718h0A1.923,1.923,0,0,1-2681.313,2470.751Zm1.79,1.854h0Zm.217-3.238a1.531,1.531,0,0,0-1.667,1.411,1.58,1.58,0,0,0,1.461,1.66,1.533,1.533,0,0,0,1.667-1.411A1.579,1.579,0,0,0-2679.306,2469.367Z" fill="#199e97"/>
  </g>
  <path id="Caminho_117" data-name="Caminho 117" d="M-2681.07,2475.367h0a5,5,0,0,1-.762-.364.168.168,0,0,1-.075-.2l.013-.026a.171.171,0,0,1,.233-.057,4.745,4.745,0,0,0,.885.4h0a4.515,4.515,0,0,0,5.672-2.621c.021-.056.041-.114.061-.172a4.524,4.524,0,0,0-2.928-5.678,4.51,4.51,0,0,0-5.733,2.793,5.066,5.066,0,0,0-.112,2.474.172.172,0,0,1-.326-.025,4.709,4.709,0,0,1,.18-2.743,4.927,4.927,0,0,1,8.946-.386,4.718,4.718,0,0,1,.3,3.673c-.021.063-.043.125-.066.187a4.7,4.7,0,0,1-2.363,2.578,4.925,4.925,0,0,1-3.733.237C-2680.944,2475.413-2681.007,2475.39-2681.07,2475.367Z" transform="translate(2723.823 -2459.892)" fill="#199e97"/>
  <path id="Caminho_118" data-name="Caminho 118" d="M-2662.4,2491.226s.857,5.149-2.855,6.187-7.716,1.162-8.614,2.738c0,0,.266-10.2,10.412-10.434Z" transform="translate(2723.823 -2459.892)" fill="#1ac0c1"/>
  <path id="Caminho_119" data-name="Caminho 119" d="M-2651.47,2490.011s2.559,4.441,1.645,5.919c-.869,1.405-10.732,7.52-11.692,8.114a.1.1,0,0,1-.129-.026h0a1.314,1.314,0,0,1-.192-1.175c.615-1.933,2.5-7.688,3.629-9.245C-2656.847,2491.717-2651.47,2490.011-2651.47,2490.011Z" transform="translate(2723.823 -2459.892)" fill="#199e97"/>
  <path id="Caminho_120" data-name="Caminho 120" d="M-2658.39,2501.288a.115.115,0,0,0,.093-.015c.054-.034,5.4-3.477,7.64-5.048a1.233,1.233,0,0,0,.5-1.246,18.323,18.323,0,0,0-1.072-3.565.118.118,0,0,0-.156-.061.118.118,0,0,0-.061.155,18.039,18.039,0,0,1,1.058,3.517,1,1,0,0,1-.406,1.007c-2.239,1.569-7.579,5.009-7.633,5.043a.119.119,0,0,0-.035.163A.117.117,0,0,0-2658.39,2501.288Z" transform="translate(2723.823 -2459.892)" fill="#1ac0c1"/>
  <path id="Caminho_121" data-name="Caminho 121" d="M-2658.5,2480.4s-3.459-3.782-5.144-3.358c-1.6.4-10.414,7.955-11.27,8.691a.1.1,0,0,0-.014.13h0a1.313,1.313,0,0,0,1.061.539c2.029,0,8.084-.059,9.91-.663C-2661.755,2485.01-2658.5,2480.4-2658.5,2480.4Z" transform="translate(2723.823 -2459.892)" fill="#199e97"/>
  <path id="Caminho_122" data-name="Caminho 122" d="M-2671.257,2483.707a.119.119,0,0,0,.1-.023c.049-.041,4.943-4.09,7.115-5.75a1,1,0,0,1,1.083-.083,18.053,18.053,0,0,1,3.032,2.072.117.117,0,0,0,.166-.011.117.117,0,0,0-.011-.166,17.893,17.893,0,0,0-3.074-2.1,1.23,1.23,0,0,0-1.339.1c-2.176,1.662-7.073,5.715-7.123,5.755a.118.118,0,0,0-.015.166A.116.116,0,0,0-2671.257,2483.707Z" transform="translate(2723.823 -2459.892)" fill="#1ac0c1"/>
  <path id="Caminho_123" data-name="Caminho 123" d="M-2637.617,2479.79a26.452,26.452,0,0,1-5.808,5.881,75.353,75.353,0,0,1-16.112,9.182,1,1,0,0,1-1.013-.167,17.7,17.7,0,0,1-5.046-6.784,1.46,1.46,0,0,1,.223-1.5,76.2,76.2,0,0,1,13.439-12.355,26.507,26.507,0,0,1,7.309-3.74A24.9,24.9,0,0,1-2637.617,2479.79Z" transform="translate(2723.823 -2459.892)" fill="#1ac0c1"/>
  <path id="Caminho_124" data-name="Caminho 124" d="M-2644.625,2470.3a27.48,27.48,0,0,1,11.135-1.284.494.494,0,0,1,.432.59,27.464,27.464,0,0,1-4.559,10.179A24.9,24.9,0,0,0-2644.625,2470.3Z" transform="translate(2723.823 -2459.892)" fill="#199e97"/>
  <path id="Caminho_125" data-name="Caminho 125" d="M-2649.99,2475.646a4.618,4.618,0,0,0-.769,6.477,4.616,4.616,0,0,0,6.406,1.225,4.617,4.617,0,0,0,.77-6.477A4.618,4.618,0,0,0-2649.99,2475.646Z" transform="translate(2723.823 -2459.892)" fill="#199e97"/>
  <path id="Caminho_126" data-name="Caminho 126" d="M-2649.4,2476.247a3.681,3.681,0,0,0-.614,5.162,3.681,3.681,0,0,0,5.1.976,3.68,3.68,0,0,0,.614-5.161A3.68,3.68,0,0,0-2649.4,2476.247Z" transform="translate(2723.823 -2459.892)" fill="#1bafab"/>
  <path id="Caminho_127" data-name="Caminho 127" d="M-2645.045,2481.076a.118.118,0,0,0,.124-.043,2.978,2.978,0,0,0-.036-3.511,3.127,3.127,0,0,0-.694-.688.118.118,0,0,0-.164.027.118.118,0,0,0,.027.165,2.816,2.816,0,0,1,.64.636,2.735,2.735,0,0,1,.038,3.229.118.118,0,0,0,.024.165A.109.109,0,0,0-2645.045,2481.076Z" transform="translate(2723.823 -2459.892)" fill="#199e97"/>
  <path id="Caminho_128" data-name="Caminho 128" d="M-2656.244,2482.231a3.05,3.05,0,0,0-.509,4.279,3.051,3.051,0,0,0,4.233.809,3.051,3.051,0,0,0,.508-4.279A3.05,3.05,0,0,0-2656.244,2482.231Z" transform="translate(2723.823 -2459.892)" fill="#199e97"/>
  <path id="Caminho_129" data-name="Caminho 129" d="M-2655.852,2482.628a2.431,2.431,0,0,0-.405,3.409,2.43,2.43,0,0,0,3.372.645,2.43,2.43,0,0,0,.406-3.409A2.431,2.431,0,0,0-2655.852,2482.628Z" transform="translate(2723.823 -2459.892)" fill="#1bafab"/>
  <path id="Caminho_130" data-name="Caminho 130" d="M-2652.988,2485.856a.118.118,0,0,0,.124-.043,2,2,0,0,0-.024-2.366,2.065,2.065,0,0,0-.467-.464.118.118,0,0,0-.164.027.117.117,0,0,0,.027.164,1.846,1.846,0,0,1,.414.412,1.767,1.767,0,0,1,.025,2.086.118.118,0,0,0,.024.165A.116.116,0,0,0-2652.988,2485.856Z" transform="translate(2723.823 -2459.892)" fill="#199e97"/>
  <g id="Grupo_406" data-name="Grupo 406" transform="translate(2723.823 -2459.892)">
    <path id="Caminho_131" data-name="Caminho 131" d="M-2680.838,2535.242h-16.836c-1.179,0-2.269.86-2.269,1.456v36.545c0,.6,1.09,1.184,2.269,1.184h16.836c1.179,0,2.545-.587,2.545-1.184V2536.7C-2678.293,2536.1-2679.659,2535.242-2680.838,2535.242Z" fill="#1ac0c1"/>
  </g>
  <g id="Grupo_407" data-name="Grupo 407" transform="translate(2723.823 -2459.892)">
    <path id="Caminho_132" data-name="Caminho 132" d="M-2702.7,2548.642c0-.308-1.064-.627-2.244-.627h-16.644c-1.18,0-2.234.319-2.234.627v25.185c0,.309,1.054.6,2.234.6h16.644c1.18,0,2.244-.291,2.244-.6Z" fill="#1ac0c1"/>
  </g>
  <g id="Grupo_408" data-name="Grupo 408" transform="translate(2723.823 -2459.892)">
    <path id="Caminho_133" data-name="Caminho 133" d="M-2606.938,2488.845c0-.758-1.269-1.33-2.449-1.33h-16.849c-1.18,0-2.088.572-2.088,1.33v83.985a1.97,1.97,0,0,0,2.088,1.6h16.849c1.18,0,2.449-.839,2.449-1.6Z" fill="#1ac0c1"/>
  </g>
  <g id="Grupo_409" data-name="Grupo 409" transform="translate(2723.823 -2459.892)">
    <path id="Caminho_134" data-name="Caminho 134" d="M-2654.632,2520.268c0-.558-1.018-1.075-2.2-1.075h-16.644c-1.18,0-2.016.517-2.016,1.075v53.086c0,.558.836,1.073,2.016,1.073h16.644c1.18,0,2.2-.515,2.2-1.073Z" fill="#1ac0c1"/>
  </g>
  <g id="Grupo_410" data-name="Grupo 410" transform="translate(2723.823 -2459.892)">
    <path id="Caminho_135" data-name="Caminho 135" d="M-2630.935,2503.867c0-.627-.934-1.044-2.114-1.044h-16.644c-1.18,0-2.1.417-2.1,1.044v69.478c0,.627.919,1.082,2.1,1.082h16.644c1.18,0,2.114-.455,2.114-1.082Z" fill="#1ac0c1"/>
  </g>
  <g id="Grupo_411" data-name="Grupo 411" transform="translate(2723.823 -2459.892)">
    <path id="Caminho_136" data-name="Caminho 136" d="M-2632.308,2487.9l13.473-19.831a.967.967,0,0,1,1.608-.012l13.89,19.831a1.036,1.036,0,0,1-.8,1.642H-2631.5A1.037,1.037,0,0,1-2632.308,2487.9Z" fill="#199e97"/>
  </g>
  <g id="Grupo_414" data-name="Grupo 414" transform="translate(2723.823 -2459.892)">
    <circle id="Elipse_17" data-name="Elipse 17" cx="13.349" cy="13.349" r="13.349" transform="translate(-2634.11 2540.236) rotate(-67.5)" fill="#199e97"/>
    <circle id="Elipse_18" data-name="Elipse 18" cx="12.905" cy="12.905" r="12.905" transform="matrix(0.566, -0.824, 0.824, 0.566, -2634.613, 2536.343)" fill="#1ac0c1"/>
    <path id="Caminho_137" data-name="Caminho 137" d="M-2627.31,2527.946a.3.3,0,0,1-.133-.031.3.3,0,0,1-.131-.4,12.156,12.156,0,0,1,10.905-6.715,12.36,12.36,0,0,1,2.2.2.3.3,0,0,1,.238.345.3.3,0,0,1-.344.238,11.742,11.742,0,0,0-2.1-.189,11.57,11.57,0,0,0-10.377,6.39A.3.3,0,0,1-2627.31,2527.946Z" fill="#fff" opacity="0.78"/>
    <circle id="Elipse_19" data-name="Elipse 19" cx="10.923" cy="10.923" r="10.923" transform="matrix(0.966, -0.257, 0.257, 0.966, -2629.748, 2525.539)" fill="#fff" opacity="0.78"/>
    <g id="Grupo_413" data-name="Grupo 413">
      <path id="Caminho_138" data-name="Caminho 138" d="M-2617.459,2541.412v-1.188a9.7,9.7,0,0,1-3.335-.723.687.687,0,0,1-.379-.812l.3-1.107a.693.693,0,0,1,.941-.453,8.039,8.039,0,0,0,3.078.648c1.194,0,2.083-.405,2.083-1.234,0-.748-.687-1.193-2.345-1.638-2.366-.647-4.065-1.678-4.065-3.761,0-1.881,1.375-3.317,3.761-3.7v-1.189a.692.692,0,0,1,.693-.692h.7a.692.692,0,0,1,.692.692v1.067a8.821,8.821,0,0,1,2.643.475.69.69,0,0,1,.431.832l-.278,1.023a.691.691,0,0,1-.912.467,7.2,7.2,0,0,0-2.592-.471c-1.415,0-1.82.587-1.82,1.112,0,.648.85,1.092,2.69,1.659,2.629.788,3.721,1.88,3.721,3.842,0,1.8-1.335,3.418-3.923,3.822v1.33a.693.693,0,0,1-.693.693h-.7A.692.692,0,0,1-2617.459,2541.412Z" fill="#1ac0c1"/>
    </g>
  </g>
  <rect id="Retângulo_779" data-name="Retângulo 779" width="26.157" height="4.982" rx="2.491" transform="translate(94.076 90.22)" fill="#199e97"/>
  <rect id="Retângulo_780" data-name="Retângulo 780" width="26.157" height="4.982" rx="2.491" transform="translate(94.096 95.846)" fill="#199e97"/>
  <rect id="Retângulo_781" data-name="Retângulo 781" width="26.157" height="4.982" rx="2.491" transform="translate(94.117 101.471)" fill="#199e97"/>
  <rect id="Retângulo_782" data-name="Retângulo 782" width="26.157" height="4.982" rx="2.491" transform="translate(94.137 106.951)" fill="#199e97"/>
  <rect id="Retângulo_783" data-name="Retângulo 783" width="26.157" height="4.982" rx="2.491" transform="translate(94.158 112.43)" fill="#199e97"/>
  <g id="Grupo_417" data-name="Grupo 417" transform="translate(2723.823 -2459.892)">
    <circle id="Elipse_20" data-name="Elipse 20" cx="13.349" cy="13.349" r="13.349" transform="translate(-2662.447 2546.152) rotate(-67.5)" fill="#199e97"/>
    <circle id="Elipse_21" data-name="Elipse 21" cx="12.905" cy="12.905" r="12.905" transform="matrix(0.566, -0.824, 0.824, 0.566, -2662.949, 2542.259)" fill="#1ac0c1"/>
    <path id="Caminho_139" data-name="Caminho 139" d="M-2655.647,2533.863a.293.293,0,0,1-.133-.032.3.3,0,0,1-.131-.4,12.159,12.159,0,0,1,10.906-6.714,12.251,12.251,0,0,1,2.2.2.3.3,0,0,1,.238.344.3.3,0,0,1-.344.238,11.722,11.722,0,0,0-2.1-.188,11.569,11.569,0,0,0-10.377,6.389A.3.3,0,0,1-2655.647,2533.863Z" fill="#fff" opacity="0.78"/>
    <circle id="Elipse_22" data-name="Elipse 22" cx="10.923" cy="10.923" r="10.923" transform="translate(-2657.149 2530.032) rotate(-8.551)" fill="#fff" opacity="0.78"/>
    <g id="Grupo_416" data-name="Grupo 416">
      <path id="Caminho_140" data-name="Caminho 140" d="M-2645.8,2547.329v-1.189a9.693,9.693,0,0,1-3.334-.722.689.689,0,0,1-.38-.813l.3-1.106a.693.693,0,0,1,.94-.454,8.05,8.05,0,0,0,3.079.648c1.193,0,2.083-.4,2.083-1.233,0-.749-.687-1.193-2.346-1.638-2.366-.647-4.065-1.679-4.065-3.762,0-1.881,1.376-3.317,3.762-3.7v-1.188a.692.692,0,0,1,.692-.693h.7a.693.693,0,0,1,.693.693v1.067a8.863,8.863,0,0,1,2.643.474.689.689,0,0,1,.43.832l-.277,1.024a.69.69,0,0,1-.912.466,7.225,7.225,0,0,0-2.592-.47c-1.416,0-1.82.586-1.82,1.112,0,.647.849,1.092,2.69,1.658,2.629.789,3.721,1.881,3.721,3.843,0,1.8-1.335,3.417-3.924,3.822v1.33a.692.692,0,0,1-.692.692h-.7A.692.692,0,0,1-2645.8,2547.329Z" fill="#1ac0c1"/>
    </g>
  </g>
  <rect id="Retângulo_784" data-name="Retângulo 784" width="26.157" height="4.982" rx="2.491" transform="translate(65.74 95.555)" fill="#199e97"/>
  <rect id="Retângulo_785" data-name="Retângulo 785" width="26.157" height="4.982" rx="2.491" transform="translate(65.76 101.18)" fill="#199e97"/>
  <rect id="Retângulo_786" data-name="Retângulo 786" width="26.157" height="4.982" rx="2.491" transform="translate(65.781 106.805)" fill="#199e97"/>
  <rect id="Retângulo_787" data-name="Retângulo 787" width="26.157" height="4.982" rx="2.491" transform="translate(65.802 112.43)" fill="#199e97"/>
  <path id="Caminho_141" data-name="Caminho 141" d="M-2706.708,2565.172a.218.218,0,0,1-.167-.077c-.126-.149-.252-.3-.376-.45a.219.219,0,0,1,.03-.307.218.218,0,0,1,.307.03q.185.224.372.444a.219.219,0,0,1-.025.308A.217.217,0,0,1-2706.708,2565.172Z" transform="translate(2723.823 -2459.892)" fill="#199e97"/>
  <path id="Caminho_142" data-name="Caminho 142" d="M-2707.8,2563.819a.217.217,0,0,1-.173-.085c-.237-.308-.47-.623-.694-.936a.218.218,0,0,1,.051-.3.218.218,0,0,1,.3.05c.221.309.452.62.685.924a.219.219,0,0,1-.04.306A.216.216,0,0,1-2707.8,2563.819Zm-1.346-1.882a.218.218,0,0,1-.182-.1c-.214-.322-.424-.652-.627-.982a.218.218,0,0,1,.072-.3.219.219,0,0,1,.3.072c.2.325.407.651.618.969a.219.219,0,0,1-.061.3A.22.22,0,0,1-2709.148,2561.937Zm-1.21-1.972a.218.218,0,0,1-.19-.111c-.191-.34-.378-.684-.554-1.026a.218.218,0,0,1,.094-.294.219.219,0,0,1,.294.094c.174.336.357.676.546,1.011a.217.217,0,0,1-.082.3A.211.211,0,0,1-2710.358,2559.965Zm-1.062-2.056a.217.217,0,0,1-.2-.126c-.165-.351-.325-.709-.475-1.064a.218.218,0,0,1,.116-.286.219.219,0,0,1,.286.116c.148.35.306.7.469,1.049a.218.218,0,0,1-.1.29A.219.219,0,0,1-2711.42,2557.909Zm-.9-2.13a.219.219,0,0,1-.205-.141c-.137-.364-.269-.734-.39-1.1a.218.218,0,0,1,.138-.276.219.219,0,0,1,.276.138c.12.36.249.724.385,1.082a.218.218,0,0,1-.127.281A.214.214,0,0,1-2712.322,2555.779Zm-.732-2.2a.219.219,0,0,1-.21-.158c-.107-.372-.208-.751-.3-1.126a.219.219,0,0,1,.16-.265.219.219,0,0,1,.264.161c.091.37.19.743.3,1.109a.218.218,0,0,1-.149.27A.211.211,0,0,1-2713.054,2553.584Zm-.55-2.247a.219.219,0,0,1-.214-.175c-.076-.382-.145-.768-.2-1.148a.219.219,0,0,1,.182-.25.219.219,0,0,1,.25.182c.058.374.126.754.2,1.129a.22.22,0,0,1-.172.258A.207.207,0,0,1-2713.6,2551.337Zm-.358-2.285a.217.217,0,0,1-.216-.194c-.043-.378-.078-.769-.1-1.162a.219.219,0,0,1,.2-.233.219.219,0,0,1,.232.2c.027.387.062.771.1,1.143a.216.216,0,0,1-.192.241Zm-.16-2.308a.219.219,0,0,1-.218-.212c-.008-.295-.012-.594-.012-.89,0-.092,0-.183,0-.275a.225.225,0,0,1,.22-.217.219.219,0,0,1,.216.221c0,.09,0,.181,0,.271,0,.292,0,.587.013.877a.219.219,0,0,1-.212.225Zm.02-2.314h-.01a.218.218,0,0,1-.208-.228c.017-.385.041-.776.071-1.162a.218.218,0,0,1,.235-.2.218.218,0,0,1,.2.235c-.03.381-.053.767-.07,1.148A.218.218,0,0,1-2714.1,2544.43Zm.181-2.307h-.025a.219.219,0,0,1-.193-.241c.043-.382.093-.77.148-1.155a.218.218,0,0,1,.248-.185.217.217,0,0,1,.184.247c-.054.381-.1.764-.146,1.141A.217.217,0,0,1-2713.921,2542.123Zm.331-2.29a.261.261,0,0,1-.039,0,.219.219,0,0,1-.177-.253c.068-.38.142-.764.221-1.143a.22.22,0,0,1,.259-.169.22.22,0,0,1,.169.259c-.079.374-.152.754-.219,1.129A.218.218,0,0,1-2713.59,2539.833Zm.474-2.264a.243.243,0,0,1-.052-.006.218.218,0,0,1-.16-.264c.091-.377.189-.755.291-1.125a.219.219,0,0,1,.269-.153.22.22,0,0,1,.153.269c-.1.366-.2.74-.289,1.112A.218.218,0,0,1-2713.116,2537.569Zm.616-2.228a.243.243,0,0,1-.065-.01.219.219,0,0,1-.144-.274c.115-.368.237-.74.363-1.1a.218.218,0,0,1,.278-.135.219.219,0,0,1,.135.278c-.125.36-.246.728-.359,1.092A.219.219,0,0,1-2712.5,2535.341Zm.758-2.186a.213.213,0,0,1-.078-.015.218.218,0,0,1-.126-.282c.14-.365.287-.728.436-1.08a.22.22,0,0,1,.287-.116.218.218,0,0,1,.115.286c-.147.348-.292.706-.43,1.067A.22.22,0,0,1-2711.742,2533.155Zm.9-2.131a.211.211,0,0,1-.092-.021.218.218,0,0,1-.106-.29c.164-.352.336-.7.512-1.048a.218.218,0,0,1,.293-.095.219.219,0,0,1,.1.294c-.174.339-.343.686-.5,1.033A.219.219,0,0,1-2710.838,2531.024Zm19.221-1.116a3.95,3.95,0,0,1-.627-.049.218.218,0,0,1-.181-.25.218.218,0,0,1,.25-.181,3.637,3.637,0,0,0,1.087.005.218.218,0,0,1,.247.185.218.218,0,0,1-.185.247A4.068,4.068,0,0,1-2691.617,2529.908Zm1.669-.356a.219.219,0,0,1-.2-.133.22.22,0,0,1,.115-.287,5.269,5.269,0,0,0,.967-.543.218.218,0,0,1,.3.052.219.219,0,0,1-.053.3,5.738,5.738,0,0,1-1.046.588A.217.217,0,0,1-2689.948,2529.552Zm-3.359-.042a.222.222,0,0,1-.1-.022,4.9,4.9,0,0,1-1.007-.667.219.219,0,0,1-.025-.308.219.219,0,0,1,.308-.025,4.482,4.482,0,0,0,.916.608.218.218,0,0,1,.1.292A.218.218,0,0,1-2693.307,2529.51Zm-16.476-.548a.218.218,0,0,1-.107-.028.219.219,0,0,1-.084-.3c.19-.339.389-.678.59-1.007a.219.219,0,0,1,.3-.072.219.219,0,0,1,.072.3c-.2.324-.4.658-.582.992A.217.217,0,0,1-2709.783,2528.962Zm21.723-.724a.214.214,0,0,1-.154-.064.217.217,0,0,1,0-.308,7.346,7.346,0,0,0,.726-.856.218.218,0,0,1,.3-.048.219.219,0,0,1,.049.305,7.9,7.9,0,0,1-.77.906A.219.219,0,0,1-2688.06,2528.238Zm-7.011-.2a.215.215,0,0,1-.17-.081c-.139-.172-.277-.359-.409-.553-.092-.137-.183-.278-.268-.42a.218.218,0,0,1,.074-.3.22.22,0,0,1,.3.074c.081.136.167.271.256.4.125.184.255.361.387.524a.218.218,0,0,1-.033.307A.213.213,0,0,1-2695.071,2528.042Zm-13.5-1.054a.215.215,0,0,1-.121-.037.218.218,0,0,1-.06-.3c.219-.326.445-.647.673-.955a.218.218,0,0,1,.305-.046.217.217,0,0,1,.046.3c-.224.3-.446.619-.661.94A.222.222,0,0,1-2708.572,2526.988Zm21.862-.618a.212.212,0,0,1-.095-.022.219.219,0,0,1-.1-.292,5.186,5.186,0,0,0,.374-1.043.22.22,0,0,1,.264-.161.22.22,0,0,1,.161.264,5.7,5.7,0,0,1-.406,1.13A.218.218,0,0,1-2686.71,2526.37Zm-9.56-.3a.219.219,0,0,1-.2-.128,10.624,10.624,0,0,1-.429-1.1.217.217,0,0,1,.139-.275.218.218,0,0,1,.276.139,10.19,10.19,0,0,0,.411,1.055.218.218,0,0,1-.108.289A.223.223,0,0,1-2696.27,2526.071Zm-10.927-.947a.214.214,0,0,1-.137-.048.218.218,0,0,1-.032-.307c.246-.3.5-.6.757-.89a.218.218,0,0,1,.308-.018.219.219,0,0,1,.018.309c-.252.282-.5.576-.744.874A.217.217,0,0,1-2707.2,2525.124Zm21.026-.986h-.005a.219.219,0,0,1-.214-.223c0-.034,0-.069,0-.1a4.907,4.907,0,0,0-.1-1,.218.218,0,0,1,.17-.258.219.219,0,0,1,.258.17,5.4,5.4,0,0,1,.11,1.086c0,.037,0,.075,0,.112A.218.218,0,0,1-2686.171,2524.138Zm-10.821-.261a.219.219,0,0,1-.213-.173,11.493,11.493,0,0,1-.184-1.165.219.219,0,0,1,.195-.24.217.217,0,0,1,.239.195,10.856,10.856,0,0,0,.177,1.119.218.218,0,0,1-.168.259A.244.244,0,0,1-2696.992,2523.877Zm-8.661-.478a.219.219,0,0,1-.154-.063.219.219,0,0,1,0-.309c.275-.278.558-.551.843-.81a.218.218,0,0,1,.308.015.217.217,0,0,1-.014.308c-.279.254-.557.521-.827.794A.219.219,0,0,1-2705.653,2523.4Zm19.014-1.507a.218.218,0,0,1-.2-.126c-.066-.142-.141-.283-.221-.418a5.775,5.775,0,0,0-.355-.53.219.219,0,0,1,.044-.306.219.219,0,0,1,.306.044,6.621,6.621,0,0,1,.381.569c.087.148.169.3.241.457a.218.218,0,0,1-.106.29A.215.215,0,0,1-2686.639,2521.892Zm-17.3-.049a.219.219,0,0,1-.169-.081.219.219,0,0,1,.031-.307c.294-.238.6-.47.9-.688l.031-.022a.218.218,0,0,1,.3.048.219.219,0,0,1-.048.3l-.032.023c-.295.213-.59.44-.877.673A.218.218,0,0,1-2703.941,2521.843Zm6.71-.263h0a.218.218,0,0,1-.218-.219,11.628,11.628,0,0,1,.061-1.177.219.219,0,0,1,.239-.2.218.218,0,0,1,.195.24c-.038.377-.058.758-.059,1.132A.218.218,0,0,1-2697.231,2521.58Zm-4.833-1.088a.219.219,0,0,1-.185-.1.219.219,0,0,1,.068-.3c.332-.209.671-.409,1.01-.593a.218.218,0,0,1,.3.087.217.217,0,0,1-.087.3c-.331.18-.662.375-.985.579A.22.22,0,0,1-2702.064,2520.492Zm14.051-.443a.216.216,0,0,1-.148-.058,6.629,6.629,0,0,0-.885-.685.219.219,0,0,1-.064-.3.218.218,0,0,1,.3-.064,6.972,6.972,0,0,1,.943.73.218.218,0,0,1,.012.309A.219.219,0,0,1-2688.013,2520.049Zm-12.02-.663a.218.218,0,0,1-.2-.127.219.219,0,0,1,.107-.289c.357-.165.72-.318,1.08-.455a.219.219,0,0,1,.282.127.219.219,0,0,1-.127.282c-.35.133-.7.282-1.052.442A.216.216,0,0,1-2700.033,2519.386Zm3.038-.1a.231.231,0,0,1-.044,0,.22.22,0,0,1-.17-.258c.045-.221.1-.443.156-.665-.253.061-.506.129-.756.2a.219.219,0,0,1-.272-.147.219.219,0,0,1,.147-.271c.337-.1.679-.19,1.017-.265a.219.219,0,0,1,.271-.141.219.219,0,0,1,.146.273c-.112.364-.206.735-.281,1.1A.218.218,0,0,1-2697,2519.282Zm7.053-.492a.223.223,0,0,1-.09-.02,8.359,8.359,0,0,0-1.056-.39.218.218,0,0,1-.148-.271.219.219,0,0,1,.272-.148,8.768,8.768,0,0,1,1.111.411.219.219,0,0,1,.11.289A.219.219,0,0,1-2689.942,2518.79Zm-2.211-.661-.036,0a10.778,10.778,0,0,0-1.126-.127.218.218,0,0,1-.205-.231.218.218,0,0,1,.231-.205,10.826,10.826,0,0,1,1.172.133.218.218,0,0,1,.179.251A.218.218,0,0,1-2692.153,2518.129Zm-3.458-.044a.219.219,0,0,1-.216-.191.217.217,0,0,1,.188-.244c.393-.051.787-.084,1.172-.1a.22.22,0,0,1,.227.21.22.22,0,0,1-.21.227c-.372.014-.753.046-1.133.095Zm-.711-1.013a.218.218,0,0,1-.082-.016.22.22,0,0,1-.12-.285c.146-.358.31-.717.489-1.068a.217.217,0,0,1,.293-.1.218.218,0,0,1,.1.293c-.173.341-.332.689-.473,1.036A.221.221,0,0,1-2696.322,2517.072Zm1.044-2.062a.214.214,0,0,1-.113-.032.218.218,0,0,1-.073-.3c.2-.327.417-.656.646-.978a.217.217,0,0,1,.3-.052.22.22,0,0,1,.052.3c-.224.313-.435.634-.629.952A.218.218,0,0,1-2695.278,2515.01Zm1.345-1.878a.215.215,0,0,1-.142-.053.22.22,0,0,1-.024-.308,11.11,11.11,0,0,1,.813-.852.218.218,0,0,1,.308.009.218.218,0,0,1-.009.309,10.65,10.65,0,0,0-.78.819A.218.218,0,0,1-2693.933,2513.132Zm1.68-1.579a.218.218,0,0,1-.175-.087.219.219,0,0,1,.043-.306,11.173,11.173,0,0,1,.979-.656.218.218,0,0,1,.3.076.218.218,0,0,1-.075.3,10.671,10.671,0,0,0-.94.63A.217.217,0,0,1-2692.253,2511.553Zm1.98-1.185a.218.218,0,0,1-.2-.125.219.219,0,0,1,.1-.291c.344-.162.7-.311,1.082-.456a.218.218,0,0,1,.281.128.218.218,0,0,1-.127.281c-.373.141-.717.285-1.049.442A.205.205,0,0,1-2690.273,2510.368Zm2.159-.823a.218.218,0,0,1-.208-.153.219.219,0,0,1,.144-.274c.332-.1.688-.206,1.119-.323a.219.219,0,0,1,.268.153.218.218,0,0,1-.153.268c-.426.116-.777.218-1.1.32A.233.233,0,0,1-2688.114,2509.545Zm2.231-.618a.218.218,0,0,1-.211-.163.218.218,0,0,1,.155-.267c.358-.094.74-.2,1.11-.306a.218.218,0,0,1,.271.148.218.218,0,0,1-.148.271c-.375.111-.761.214-1.121.31A.216.216,0,0,1-2685.883,2508.927Zm2.214-.671a.219.219,0,0,1-.205-.141.22.22,0,0,1,.128-.282,8.2,8.2,0,0,0,1.027-.461.219.219,0,0,1,.3.088.219.219,0,0,1-.089.3,8.638,8.638,0,0,1-1.08.486A.213.213,0,0,1-2683.669,2508.256Zm2.009-1.118a.218.218,0,0,1-.167-.077.219.219,0,0,1,.025-.308,4.275,4.275,0,0,0,.742-.806.219.219,0,0,1,.3-.052.219.219,0,0,1,.052.3,4.808,4.808,0,0,1-.815.886A.215.215,0,0,1-2681.66,2507.138Zm1.325-1.858a.218.218,0,0,1-.083-.016.218.218,0,0,1-.119-.285c.139-.337.273-.687.41-1.071a.22.22,0,0,1,.28-.132.218.218,0,0,1,.131.279c-.139.391-.276.747-.417,1.09A.219.219,0,0,1-2680.335,2505.28Zm.785-2.176a.215.215,0,0,1-.067-.01.218.218,0,0,1-.141-.275c.118-.366.231-.734.343-1.1a.218.218,0,0,1,.272-.146.218.218,0,0,1,.146.273c-.113.37-.227.739-.345,1.108A.219.219,0,0,1-2679.55,2503.1Zm.679-2.212a.241.241,0,0,1-.064-.009.219.219,0,0,1-.145-.273q.168-.555.344-1.108a.217.217,0,0,1,.274-.141.219.219,0,0,1,.142.274c-.118.366-.231.734-.342,1.1A.22.22,0,0,1-2678.871,2500.892Zm.711-2.2a.207.207,0,0,1-.073-.013.218.218,0,0,1-.133-.279c.139-.391.275-.747.415-1.09a.219.219,0,0,1,.285-.12.219.219,0,0,1,.119.285c-.137.337-.271.687-.407,1.071A.218.218,0,0,1-2678.16,2498.691Zm.88-2.137a.214.214,0,0,1-.095-.022.219.219,0,0,1-.1-.292c.174-.36.359-.709.549-1.036a.218.218,0,0,1,.3-.079.217.217,0,0,1,.079.3c-.184.318-.364.657-.533,1.007A.22.22,0,0,1-2677.28,2496.554Zm1.163-2a.223.223,0,0,1-.125-.039.218.218,0,0,1-.054-.3c.226-.322.467-.636.718-.932a.217.217,0,0,1,.307-.025.217.217,0,0,1,.026.307c-.242.286-.475.589-.693.9A.218.218,0,0,1-2676.117,2494.557Zm1.492-1.762a.217.217,0,0,1-.156-.066.218.218,0,0,1,0-.308c.206-.2.423-.4.645-.593l.229-.193a.219.219,0,0,1,.308.03.218.218,0,0,1-.03.307c-.075.062-.149.124-.222.188-.215.184-.425.377-.624.572A.219.219,0,0,1-2674.625,2492.795Zm1.78-1.475a.217.217,0,0,1-.179-.093.219.219,0,0,1,.053-.3c.321-.226.653-.44.987-.637a.218.218,0,0,1,.3.077.218.218,0,0,1-.077.3c-.324.191-.646.4-.957.618A.22.22,0,0,1-2672.845,2491.32Zm1.992-1.172a.22.22,0,0,1-.2-.124.22.22,0,0,1,.1-.292c.355-.17.719-.326,1.081-.462a.217.217,0,0,1,.281.127.217.217,0,0,1-.127.281c-.35.132-.7.283-1.046.448A.207.207,0,0,1-2670.853,2490.148Zm2.163-.813a.217.217,0,0,1-.21-.16.218.218,0,0,1,.153-.269c.38-.1.767-.19,1.149-.255a.218.218,0,0,1,.252.178.217.217,0,0,1-.178.252c-.368.063-.741.146-1.108.247A.222.222,0,0,1-2668.69,2489.335Zm2.277-.39a.219.219,0,0,1-.218-.2.22.22,0,0,1,.2-.233,11.319,11.319,0,0,1,1.179-.02.218.218,0,0,1,.211.225.216.216,0,0,1-.226.211,11,11,0,0,0-1.134.02Z" transform="translate(2723.823 -2459.892)" fill="#199e97"/>
  <path id="Caminho_143" data-name="Caminho 143" d="M-2663.5,2489.131a.222.222,0,0,1-.043,0c-.187-.038-.376-.071-.562-.1a.217.217,0,0,1-.184-.247.218.218,0,0,1,.247-.185c.194.028.391.062.585.1a.219.219,0,0,1,.171.258A.219.219,0,0,1-2663.5,2489.131Z" transform="translate(2723.823 -2459.892)" fill="#199e97"/>
</svg>
