<svg id="Componente_18_1" data-name="Componente 18 – 1" xmlns="http://www.w3.org/2000/svg" width="117.515" height="117.515" viewBox="0 0 117.515 117.515">
  <path id="Caminho_75" data-name="Caminho 75" d="M-3069.542,2482.851a33.688,33.688,0,0,0,11.2-7.431,33.666,33.666,0,0,0-11.192-7.429,33.8,33.8,0,0,0-12.755-2.482,33.778,33.778,0,0,0-12.755,2.482,33.685,33.685,0,0,0-11.195,7.431,33.67,33.67,0,0,0,11.192,7.429,33.778,33.778,0,0,0,12.755,2.482A33.778,33.778,0,0,0-3069.542,2482.851Z" transform="translate(3160.301 -2459.892)" fill="#fff" opacity="0.78"/>
  <rect id="Retângulo_773" data-name="Retângulo 773" width="4.539" height="14.706" transform="translate(0 107.117) rotate(-45)" fill="#1bafab"/>
  <rect id="Retângulo_774" data-name="Retângulo 774" width="4.539" height="14.706" transform="translate(39.779 67.337) rotate(-45)" fill="#1bafab"/>
  <rect id="Retângulo_775" data-name="Retângulo 775" width="51.717" height="11.432" transform="translate(4.367 105.064) rotate(-45)" fill="#1ac0c1"/>
  <rect id="Retângulo_776" data-name="Retângulo 776" width="5.47" height="5.348" transform="translate(46.297 67.436) rotate(-45)" fill="#1bafab"/>
  <rect id="Retângulo_777" data-name="Retângulo 777" width="4.539" height="7.353" transform="translate(5.199 112.316) rotate(-45)" fill="#1ac0c1"/>
  <path id="Caminho_85" data-name="Caminho 85" d="M-3106.913,2534.418l-5.2-5.2-3.21,3.21,4.042,4.042,1.157,1.157Z" transform="translate(3160.301 -2459.892)" fill="#199e97"/>
  <rect id="Retângulo_778" data-name="Retângulo 778" width="51.717" height="5.716" transform="matrix(0.707, -0.707, 0.707, 0.707, 8.409, 109.106)" fill="#1bafab"/>
  <path id="Caminho_86" data-name="Caminho 86" d="M-3108.277,2529.166q-1-.879-1.954-1.829l-1.882,1.882,1.891,1.891Z" transform="translate(3160.301 -2459.892)" fill="#199e97"/>
  <g id="Grupo_393" data-name="Grupo 393" transform="translate(3160.301 -2459.892)">
    <path id="Caminho_87" data-name="Caminho 87" d="M-3049.026,2492.9q-.311-1.6-.776-3.162Q-3049.337,2491.3-3049.026,2492.9Z" fill="#199e97"/>
    <path id="Caminho_88" data-name="Caminho 88" d="M-3048.4,2499.4q0-1.651-.156-3.28Q-3048.4,2497.749-3048.4,2499.4Z" fill="#199e97"/>
    <path id="Caminho_89" data-name="Caminho 89" d="M-3050.884,2512.155c.256-.631.485-1.271.7-1.913C-3050.4,2510.884-3050.628,2511.524-3050.884,2512.155Z" fill="#199e97"/>
    <path id="Caminho_90" data-name="Caminho 90" d="M-3055,2519.5a33.866,33.866,0,0,1-2.149,2.623A33.866,33.866,0,0,0-3055,2519.5Z" fill="#199e97"/>
    <path id="Caminho_91" data-name="Caminho 91" d="M-3042.786,2499.4q0-1.924-.182-3.822.183,1.9.182,3.822Z" fill="#199e97"/>
    <path id="Caminho_92" data-name="Caminho 92" d="M-3048.4,2499.4c0,.587-.017,1.172-.047,1.754C-3048.42,2500.573-3048.4,2499.988-3048.4,2499.4Z" fill="#199e97"/>
    <path id="Caminho_93" data-name="Caminho 93" d="M-3067.428,2536.016a39.326,39.326,0,0,1-9.156,2.484A39.326,39.326,0,0,0-3067.428,2536.016Z" fill="#199e97"/>
    <path id="Caminho_94" data-name="Caminho 94" d="M-3097.168,2536.012l.008,0a39.37,39.37,0,0,0,14.866,2.893,39.37,39.37,0,0,1-14.866-2.893Z" fill="#199e97"/>
    <path id="Caminho_95" data-name="Caminho 95" d="M-3060.468,2532.345a38.933,38.933,0,0,1-3.38,2.006A38.933,38.933,0,0,0-3060.468,2532.345Z" fill="#199e97"/>
    <path id="Caminho_96" data-name="Caminho 96" d="M-3093.515,2531.39q1.543.54,3.125.929Q-3091.971,2531.931-3093.515,2531.39Z" fill="#199e97"/>
  </g>
  <path id="Caminho_97" data-name="Caminho 97" d="M-3054.357,2471.464l-3.972,3.972a33.677,33.677,0,0,1,7.445,11.21,33.792,33.792,0,0,1,2.481,12.755,33.788,33.788,0,0,1-2.481,12.754,33.667,33.667,0,0,1-7.445,11.21,33.675,33.675,0,0,1-11.21,7.445,33.778,33.778,0,0,1-12.755,2.482,33.778,33.778,0,0,1-12.755-2.482,33.68,33.68,0,0,1-11.21-7.445l-3.972,3.972c.634.634,1.2,1.325,1.872,1.91a39.339,39.339,0,0,0,11.2,6.769,39.37,39.37,0,0,0,14.866,2.893,39.372,39.372,0,0,0,14.866-2.893,39.268,39.268,0,0,0,13.071-8.679,39.261,39.261,0,0,0,8.678-13.071,39.368,39.368,0,0,0,2.893-14.865,39.372,39.372,0,0,0-2.893-14.866,39.259,39.259,0,0,0-8.678-13.071" transform="translate(3160.301 -2459.892)" fill="#199e97"/>
  <path id="Caminho_98" data-name="Caminho 98" d="M-3058.329,2475.436a33.675,33.675,0,0,0-11.21-7.445,33.778,33.778,0,0,0-12.755-2.482,33.778,33.778,0,0,0-12.755,2.482,33.69,33.69,0,0,0-11.21,7.445,33.685,33.685,0,0,0-7.445,11.21,33.791,33.791,0,0,0-2.481,12.754,33.789,33.789,0,0,0,2.481,12.755,33.68,33.68,0,0,0,7.445,11.21,33.68,33.68,0,0,0,11.21,7.445,33.778,33.778,0,0,0,12.755,2.482,33.778,33.778,0,0,0,12.755-2.482,33.675,33.675,0,0,0,11.21-7.445,33.667,33.667,0,0,0,7.445-11.21,33.788,33.788,0,0,0,2.481-12.754,33.792,33.792,0,0,0-2.481-12.755,33.677,33.677,0,0,0-7.445-11.21" transform="translate(3160.301 -2459.892)" fill="#fff" opacity="0.78"/>
  <path id="Caminho_99" data-name="Caminho 99" d="M-3113.7,2512.155a33.789,33.789,0,0,1-2.481-12.755,33.788,33.788,0,0,1,2.481-12.754,33.67,33.67,0,0,1,7.445-11.21,33.69,33.69,0,0,1,11.21-7.445,33.778,33.778,0,0,1,12.755-2.482,33.778,33.778,0,0,1,12.755,2.482,33.675,33.675,0,0,1,11.21,7.445,33.891,33.891,0,0,1,5.193,6.67,33.863,33.863,0,0,0-5.193-6.67l3.972-3.972a39.268,39.268,0,0,0-13.071-8.679,39.391,39.391,0,0,0-14.866-2.893,39.389,39.389,0,0,0-14.866,2.893,39.268,39.268,0,0,0-13.071,8.679,39.259,39.259,0,0,0-8.678,13.071,39.362,39.362,0,0,0-2.893,14.865,39.368,39.368,0,0,0,2.893,14.866,39.261,39.261,0,0,0,8.678,13.071l3.972-3.972A33.68,33.68,0,0,1-3113.7,2512.155Z" transform="translate(3160.301 -2459.892)" fill="#1ac0c1"/>
</svg>
