<svg id="Componente_19_1" data-name="Componente 19 – 1" xmlns="http://www.w3.org/2000/svg" width="64.8" height="140.616" viewBox="0 0 64.8 140.616">
  <path id="Caminho_76" data-name="Caminho 76" d="M-3539.409,2514.38h-22.05l-2.424,24.013a87.825,87.825,0,0,1-8.41,29.613h0l-.606,3a2.312,2.312,0,0,0,2.266,2.771h40.4a2.312,2.312,0,0,0,2.266-2.771l-.519-2.571h0a92.077,92.077,0,0,1-8.54-30.47Z" transform="translate(3582.834 -2459.893)" fill="#1bafab"/>
  <rect id="Retângulo_766" data-name="Retângulo 766" width="22.837" height="6.994" rx="2.175" transform="translate(20.981 47.493)" fill="#1ac0c1"/>
  <rect id="Retângulo_767" data-name="Retângulo 767" width="22.837" height="4.781" rx="2.175" transform="translate(20.981 39.225)" fill="#1bafab"/>
  <rect id="Retângulo_768" data-name="Retângulo 768" width="24.919" height="3.656" rx="1.828" transform="translate(19.856 44.006)" fill="#199e97"/>
  <rect id="Retângulo_769" data-name="Retângulo 769" width="24.919" height="3.094" rx="1.547" transform="translate(19.856 36.131)" fill="#199e97"/>
  <path id="Caminho_77" data-name="Caminho 77" d="M-3535.134,2475.211h-31.95l6.694,20.813h20.306Z" transform="translate(3582.834 -2459.893)" fill="#1bafab"/>
  <path id="Caminho_78" data-name="Caminho 78" d="M-3534.134,2470.586h0l-1,4.625h-2.981l.37-1.711A3.7,3.7,0,0,1-3534.134,2470.586Z" transform="translate(3582.834 -2459.893)" fill="#199e97"/>
  <path id="Caminho_79" data-name="Caminho 79" d="M-3568.083,2470.586h0l1,4.625h2.981l-.37-1.711A3.7,3.7,0,0,0-3568.083,2470.586Z" transform="translate(3582.834 -2459.893)" fill="#199e97"/>
  <path id="Caminho_80" data-name="Caminho 80" d="M-3555.843,2467.52a6.087,6.087,0,0,1,9.468,0h0l4.735,7.691h-18.938l4.735-7.691Z" transform="translate(3582.834 -2459.893)" fill="#199e97"/>
  <rect id="Retângulo_770" data-name="Retângulo 770" width="1.95" height="5.367" transform="translate(31.162)" fill="#1ac0c1"/>
  <rect id="Retângulo_771" data-name="Retângulo 771" width="1.95" height="5.367" transform="translate(34.821 1.708) rotate(90)" fill="#1ac0c1"/>
  <g id="Grupo_389" data-name="Grupo 389" transform="translate(3582.834 -2459.893)">
    <path id="Caminho_81" data-name="Caminho 81" d="M-3554.99,2473.261V2470.2h-3v3.056h-1.763v1.95h6.525v-1.95Z" fill="#1ac0c1"/>
    <path id="Caminho_82" data-name="Caminho 82" d="M-3544.228,2473.261V2470.2h-3v3.056h-1.763v1.95h6.525v-1.95Z" fill="#1ac0c1"/>
  </g>
  <rect id="Retângulo_772" data-name="Retângulo 772" width="64.8" height="6.6" transform="translate(0 134.016)" fill="#199e97"/>
  <path id="Caminho_83" data-name="Caminho 83" d="M-3528.984,2578.908h-43.05a10.8,10.8,0,0,0-10.8,10.8h0a5.466,5.466,0,0,0,5.317,4.2h54.311a5.327,5.327,0,0,0,5.172-4.05h0A10.95,10.95,0,0,0-3528.984,2578.908Z" transform="translate(3582.834 -2459.893)" fill="#1bafab"/>
  <path id="Caminho_84" data-name="Caminho 84" d="M-3526.3,2572.008h-48.262l3.748,6.9h40.765Z" transform="translate(3582.834 -2459.893)" fill="#1ac0c1"/>
</svg>
