<svg id="Componente_38_1" data-name="Componente 38 – 1" xmlns="http://www.w3.org/2000/svg" width="131.866" height="85.37" viewBox="0 0 131.866 85.37">
  <g id="Grupo_645" data-name="Grupo 645" transform="translate(0 28.898)">
    <g id="Grupo_644" data-name="Grupo 644" transform="translate(49.58 40.515)">
      <path id="Caminho_673" data-name="Caminho 673" d="M1816.407-7158.136a8.455,8.455,0,0,1,2.848.432,5.43,5.43,0,0,1,2.017,1.23,5.368,5.368,0,0,1,1.241,1.928,8.585,8.585,0,0,1,.521,2.526,30.565,30.565,0,0,1,0,3.28,8.579,8.579,0,0,1-.521,2.525,5.435,5.435,0,0,1-1.23,1.929,5.355,5.355,0,0,1-1.984,1.23,8.119,8.119,0,0,1-2.781.433h-5.585a.574.574,0,0,1-.421-.178.575.575,0,0,1-.177-.421v-14.317a.572.572,0,0,1,.177-.42.576.576,0,0,1,.421-.178Zm3.635,6.117a4.459,4.459,0,0,0-.277-1.319,3.012,3.012,0,0,0-.687-1.064,3.138,3.138,0,0,0-1.141-.708,4.719,4.719,0,0,0-1.64-.255h-2.97v9.973h3.08a4.406,4.406,0,0,0,1.574-.254,3.136,3.136,0,0,0,1.108-.7,2.944,2.944,0,0,0,.676-1.065,4.571,4.571,0,0,0,.277-1.329A30.5,30.5,0,0,0,1820.042-7152.02Z" transform="translate(-1810.335 7158.358)" fill="#fff"/>
      <path id="Caminho_674" data-name="Caminho 674" d="M1828.707-7142.622a.572.572,0,0,1-.421-.178.574.574,0,0,1-.177-.421v-14.317a.571.571,0,0,1,.177-.42.574.574,0,0,1,.421-.178h1.794a.577.577,0,0,1,.421.178.572.572,0,0,1,.177.42v14.317a.575.575,0,0,1-.177.421.575.575,0,0,1-.421.178Z" transform="translate(-1812.506 7158.358)" fill="#fff"/>
      <path id="Caminho_675" data-name="Caminho 675" d="M1834.817-7152.427a7.038,7.038,0,0,1,.487-2.427,5.225,5.225,0,0,1,1.285-1.884,5.817,5.817,0,0,1,2.073-1.219,8.643,8.643,0,0,1,2.87-.433,8.656,8.656,0,0,1,3.18.5,6.279,6.279,0,0,1,1.995,1.2,4.146,4.146,0,0,1,1.042,1.44,4.56,4.56,0,0,1,.343,1.252.492.492,0,0,1-.166.432.638.638,0,0,1-.433.167h-1.8a.584.584,0,0,1-.388-.123.816.816,0,0,1-.21-.255q-.045-.088-.233-.387a2.591,2.591,0,0,0-.6-.621,4.149,4.149,0,0,0-1.074-.576,4.681,4.681,0,0,0-1.663-.255,3.819,3.819,0,0,0-2.659.9,3.278,3.278,0,0,0-1.064,2.4q-.045.843-.045,1.807t.045,1.807a3.453,3.453,0,0,0,1.064,2.669,4.021,4.021,0,0,0,2.659.831,6.027,6.027,0,0,0,1.507-.177,3.111,3.111,0,0,0,1.185-.576,2.634,2.634,0,0,0,.776-1.053,4.116,4.116,0,0,0,.277-1.606v-.177h-2.7a.575.575,0,0,1-.422-.177.576.576,0,0,1-.177-.421v-1.573a.575.575,0,0,1,.177-.421.577.577,0,0,1,.422-.178h5.1a.577.577,0,0,1,.421.178.579.579,0,0,1,.177.421v2.437a6.9,6.9,0,0,1-.421,2.449,5.158,5.158,0,0,1-1.263,1.929,5.851,5.851,0,0,1-2.105,1.262,8.692,8.692,0,0,1-2.948.455,8.69,8.69,0,0,1-2.925-.443,5.633,5.633,0,0,1-2.061-1.241,5.3,5.3,0,0,1-1.252-1.918,7.4,7.4,0,0,1-.477-2.448q-.022-.421-.033-.931t-.011-1.042c0-.354,0-.7.011-1.042S1834.8-7152.146,1834.817-7152.427Z" transform="translate(-1813.32 7158.389)" fill="#fff"/>
      <path id="Caminho_676" data-name="Caminho 676" d="M1853.926-7142.622a.575.575,0,0,1-.421-.178.578.578,0,0,1-.177-.421v-14.317a.575.575,0,0,1,.177-.42.577.577,0,0,1,.421-.178h1.8a.577.577,0,0,1,.421.178.576.576,0,0,1,.177.42v14.317a.579.579,0,0,1-.177.421.576.576,0,0,1-.421.178Z" transform="translate(-1815.586 7158.358)" fill="#fff"/>
      <path id="Caminho_677" data-name="Caminho 677" d="M1870.828-7158.136a.574.574,0,0,1,.421.178.572.572,0,0,1,.178.42v1.574a.577.577,0,0,1-.178.421.574.574,0,0,1-.421.176h-3.989v12.145a.578.578,0,0,1-.177.421.575.575,0,0,1-.421.178h-1.8a.575.575,0,0,1-.421-.178.577.577,0,0,1-.177-.421v-12.145h-3.99a.574.574,0,0,1-.42-.176.576.576,0,0,1-.177-.421v-1.574a.572.572,0,0,1,.177-.42.573.573,0,0,1,.42-.178Z" transform="translate(-1816.311 7158.358)" fill="#fff"/>
      <path id="Caminho_678" data-name="Caminho 678" d="M1880.967-7158.136a.7.7,0,0,1,.532.188,1.592,1.592,0,0,1,.311.565l5.43,14.006a.494.494,0,0,1,.022.155.574.574,0,0,1-.177.421.575.575,0,0,1-.421.178h-1.595a.828.828,0,0,1-.621-.189,1.115,1.115,0,0,1-.244-.366l-.952-2.459h-7l-.954,2.459a1.115,1.115,0,0,1-.243.366.83.83,0,0,1-.621.189h-1.6a.572.572,0,0,1-.42-.178.574.574,0,0,1-.177-.421.494.494,0,0,1,.022-.155l5.43-14.006a1.607,1.607,0,0,1,.31-.565.7.7,0,0,1,.532-.188Zm1.219,9.729-2.438-6.315-2.438,6.315Z" transform="translate(-1817.896 7158.358)" fill="#fff"/>
      <path id="Caminho_679" data-name="Caminho 679" d="M1901.955-7145.393a.573.573,0,0,1,.42.178.574.574,0,0,1,.177.421v1.573a.574.574,0,0,1-.177.421.575.575,0,0,1-.42.178h-9.707a.575.575,0,0,1-.422-.178.578.578,0,0,1-.177-.421v-14.317a.575.575,0,0,1,.177-.42.577.577,0,0,1,.422-.178h1.8a.577.577,0,0,1,.421.178.575.575,0,0,1,.177.42v12.145Z" transform="translate(-1820.267 7158.358)" fill="#fff"/>
    </g>
    <path id="Caminho_680" data-name="Caminho 680" d="M1776.359-7177.472a.985.985,0,0,1,.808.369.928.928,0,0,1,.161.877l-.692,3.278a1.476,1.476,0,0,1-.531.877,1.442,1.442,0,0,1-.946.369h-20.265a.986.986,0,0,1-.809-.369,1.03,1.03,0,0,1-.207-.877l6.37-29.821a1.481,1.481,0,0,1,.53-.877,1.446,1.446,0,0,1,.946-.369h19.9a.991.991,0,0,1,.809.369,1.036,1.036,0,0,1,.207.877l-.738,3.278a1.471,1.471,0,0,1-.531.877,1.438,1.438,0,0,1-.946.369h-14.909l-1.57,7.34h13.895a.926.926,0,0,1,.785.37,1.08,1.08,0,0,1,.184.877l-.693,3.277a1.439,1.439,0,0,1-.554.877,1.528,1.528,0,0,1-.969.37H1762.7l-1.615,7.663Z" transform="translate(-1753.856 7204.477)" fill="#fff"/>
    <path id="Caminho_681" data-name="Caminho 681" d="M1786.781-7171.7a.985.985,0,0,1-.808-.369,1.027,1.027,0,0,1-.208-.877l6.371-29.821a1.474,1.474,0,0,1,.531-.877,1.445,1.445,0,0,1,.946-.369h3.74a.992.992,0,0,1,.807.369,1.033,1.033,0,0,1,.207.877l-6.37,29.821a1.475,1.475,0,0,1-.531.877,1.438,1.438,0,0,1-.946.369Z" transform="translate(-1757.751 7204.477)" fill="#fff"/>
    <path id="Caminho_682" data-name="Caminho 682" d="M1836.706-7192.031a23.442,23.442,0,0,1,1.893-4.87,13.936,13.936,0,0,1,3.093-3.97,14.272,14.272,0,0,1,4.547-2.679,17.713,17.713,0,0,1,6.208-.992,13.733,13.733,0,0,1,5.355.97,10.245,10.245,0,0,1,3.808,2.676,9.494,9.494,0,0,1,2.078,3.97,12.066,12.066,0,0,1,.161,4.894q-.138.877-.345,1.938t-.463,2.193q-.254,1.131-.507,2.192t-.439,1.939a26.261,26.261,0,0,1-1.823,4.87,13.152,13.152,0,0,1-3,3.97,13.633,13.633,0,0,1-4.546,2.654,18.9,18.9,0,0,1-6.416.969,13.732,13.732,0,0,1-5.355-.969,10.173,10.173,0,0,1-3.786-2.654,9.427,9.427,0,0,1-2.054-3.97,11.977,11.977,0,0,1-.162-4.87q.138-.876.347-1.939t.438-2.192q.23-1.131.484-2.193t.485-1.938m20.866.231q.508-3.324-1.062-5.148a5.994,5.994,0,0,0-4.8-1.823,8.858,8.858,0,0,0-5.586,1.823,9.258,9.258,0,0,0-3.231,5.148q-.508,1.754-.969,3.9t-.693,3.9q-.554,3.324,1.038,5.124a6.108,6.108,0,0,0,4.824,1.8,8.834,8.834,0,0,0,5.563-1.8,9.42,9.42,0,0,0,3.254-5.124q.461-1.753.923-3.9t.738-3.9" transform="translate(-1763.74 7204.541)" fill="#fff"/>
    <path id="Caminho_683" data-name="Caminho 683" d="M1782.153-7147.023a1.221,1.221,0,0,0,.9.38l3.97.01a1.766,1.766,0,0,0,1.371-.47q.427-.472.616-.708l7.159-9.955,3.746-5.237,4.864-6.718c.237-.264.422-.478.534-.617l7.136-9.972.118-.165.118.165,7.136,9.972q.19.235.615.708a1.76,1.76,0,0,0,1.37.472h3.97a1.226,1.226,0,0,0,.9-.377,1.225,1.225,0,0,0,.378-.9,1.171,1.171,0,0,0-.142-.52l-10.349-14.414-3.733-5.245-.259-.36-.25.375-.011-.014-3.734,5.245-4.664,6.5c-.132.151-.245.282-.32.377l-7.539,10.427-3.745,5.236-10.382,14.39a1.17,1.17,0,0,0-.143.52,1.224,1.224,0,0,0,.376.9" transform="translate(-1757.266 7202.883)" fill="#fff"/>
  </g>
  <path id="Caminho_684" data-name="Caminho 684" d="M1845.127-7237.071a1.227,1.227,0,0,0-.9-.38l-3.97-.01a1.766,1.766,0,0,0-1.371.47q-.427.473-.616.708l-7.159,9.956-3.745,5.236-4.865,6.718c-.237.266-.421.478-.534.618l-7.136,9.971-.118.166-.118-.166-7.136-9.971q-.19-.237-.615-.709a1.761,1.761,0,0,0-1.37-.473h-3.97a1.227,1.227,0,0,0-.9.378,1.225,1.225,0,0,0-.378.9,1.171,1.171,0,0,0,.142.52l10.349,14.414,2.742,3.854h2.5l2.742-3.854,4.664-6.5c.132-.15.245-.282.32-.376l7.538-10.426,3.745-5.237,10.382-14.39a1.175,1.175,0,0,0,.143-.52,1.226,1.226,0,0,0-.376-.9" transform="translate(-1759.521 7237.461)" fill="#fff"/>
</svg>
