<svg xmlns="http://www.w3.org/2000/svg" width="12.743" height="13.797" viewBox="0 0 12.743 13.797">
  <g id="Grupo_663" data-name="Grupo 663" transform="translate(0)">
    <g id="Ellipse_15" data-name="Ellipse 15" transform="translate(0 0)">
      <g id="Grupo_661" data-name="Grupo 661">
        <ellipse id="Elipse_33" data-name="Elipse 33" cx="4.35" cy="4.35" rx="4.35" ry="4.35" fill="none"/>
      </g>
      <g id="Grupo_662" data-name="Grupo 662" transform="translate(0)">
        <path id="Caminho_697" data-name="Caminho 697" d="M3325.762-6468.6a4.354,4.354,0,0,1-4.349-4.35,4.354,4.354,0,0,1,4.349-4.35,4.354,4.354,0,0,1,4.35,4.35A4.355,4.355,0,0,1,3325.762-6468.6Zm0-7.541a3.2,3.2,0,0,0-3.19,3.191,3.194,3.194,0,0,0,3.19,3.189,3.194,3.194,0,0,0,3.19-3.189A3.2,3.2,0,0,0,3325.762-6476.144Z" transform="translate(-3321.413 6477.303)" fill="#fff"/>
      </g>
    </g>
    <g id="Line_17" data-name="Line 17" transform="translate(6.254 6.615)">
      <rect id="Retângulo_876" data-name="Retângulo 876" width="1.16" height="8.528" transform="matrix(0.753, -0.658, 0.658, 0.753, 0, 0.764)" fill="#fff"/>
    </g>
  </g>
</svg>
